<?xml version="1.0" encoding="utf-8"?>
<!-- Generator: Adobe Illustrator 22.1.0, SVG Export Plug-In . SVG Version: 6.00 Build 0)  -->
<svg version="1.1" id="Layer_1" xmlns="http://www.w3.org/2000/svg" xmlns:xlink="http://www.w3.org/1999/xlink" x="0px" y="0px"
	 viewBox="0 0 512.3 141.7" style="enable-background:new 0 0 512.3 141.7;" xml:space="preserve">
<style type="text/css">
	.st0{fill:#FEFEFE;}
	.st1{fill:#FF7F40;}
	.st2{fill:#FFFFFF;}
</style>
<g>
	<path class="st0" d="M164.5,75.3c-10.9,0-21.9-8.9-21.9-23.1c0-12.9,9.3-23.1,22.2-23.1c8.1,0,12.9,2.8,16.5,7l-4.5,4
		c-3.1-3.2-7-5-11.9-5c-8.7,0-15.9,6.7-15.9,17c0,11.5,8.8,17.2,15.7,17.2c4.3,0,9.3-1.7,13.1-6.2l4.4,3.8
		C178.7,71.7,172.3,75.3,164.5,75.3z"/>
	<path class="st0" d="M195.3,74.6V29.9h6.1v39h17v5.8H195.3z"/>
	<path class="st0" d="M246.1,75.3c-10.3,0-17.5-6.6-17.5-17.6V29.9h6.2v27.8c0,8.6,5.4,11.9,11.3,11.9c5.8,0,11.5-3.3,11.5-11.9
		V29.9h6.1v27.8C263.6,68.4,256,75.3,246.1,75.3z"/>
	<path class="st0" d="M289.9,75.3c-4.5,0-9-1.2-13.1-4.5l3.5-4.7c2.4,2.1,6.3,3.3,9.3,3.3c4.5,0,7.7-2,7.7-6.3
		c0-3.8-3.5-5.9-7.5-7.9c-6.4-3.2-12.9-6.1-12.9-14.6c0-6.6,4.9-11.5,12.9-11.5c4.5,0,8.6,1.3,12.1,3.8l-3.3,5
		c-2.8-2-5.1-2.8-8.8-2.8c-3.5,0-6.4,1.8-6.4,5.1c0,4.8,4.3,6.5,9.8,9.3c5.1,2.5,10.5,5.8,10.5,13.2
		C303.6,70.8,297.3,75.3,289.9,75.3z"/>
	<path class="st0" d="M328.7,35.6v39h-6.1v-39h-9.1v-5.8h24.8v5.8H328.7z"/>
	<path class="st0" d="M351.2,74.6V29.9h25v5.8h-18.9v14.3h18.4v5.8h-18.4v13.2h20v5.8H351.2z"/>
	<path class="st0" d="M415.4,74.6l-18.1-20.9v20.9h-6.1V29.9h14.5c8.3,0,13.8,5.9,13.8,13.2c0,7.2-6.1,12.8-12.7,12.8l16.5,18.8
		H415.4z M404.6,35.6h-7.2V51h7.1c5.5,0,8.7-3.4,8.7-8.2C413.1,39.7,410.4,35.6,404.6,35.6z"/>
	<path class="st0" d="M443.8,75.3c-4.5,0-9-1.2-13.1-4.5l3.5-4.7c2.4,2.1,6.2,3.3,9.3,3.3c4.5,0,7.7-2,7.7-6.3
		c0-3.8-3.5-5.9-7.5-7.9c-6.4-3.2-12.9-6.1-12.9-14.6c0-6.6,4.9-11.5,12.9-11.5c4.5,0,8.6,1.3,12.1,3.8l-3.3,5
		c-2.8-2-5.1-2.8-8.8-2.8c-3.5,0-6.4,1.8-6.4,5.1c0,4.8,4.3,6.5,9.8,9.3c5.1,2.5,10.5,5.8,10.5,13.2
		C457.5,70.8,451.3,75.3,443.8,75.3z"/>
</g>
<g>
	<path class="st1" d="M145.1,113.2V98.5h2v14.7H145.1z"/>
	<path class="st1" d="M164.2,113.2l-7.7-10.7c-0.1-0.1-0.3-0.4-0.3-0.4s0,0.3,0,0.5v10.6h-2V98.5h1.7l7.6,10.5l0.3,0.4
		c0,0,0-0.3,0-0.5V98.5h2v14.7H164.2z"/>
	<path class="st1" d="M176.5,113.5c-1.5,0-3-0.4-4.3-1.5l1.1-1.6c0.8,0.7,2.1,1.1,3.1,1.1c1.5,0,2.5-0.7,2.5-2.1
		c0-1.2-1.1-1.9-2.5-2.6c-2.1-1.1-4.2-2-4.2-4.8c0-2.2,1.6-3.8,4.3-3.8c1.5,0,2.8,0.4,4,1.2l-1.1,1.7c-0.9-0.7-1.7-0.9-2.9-0.9
		c-1.1,0-2.1,0.6-2.1,1.7c0,1.6,1.4,2.1,3.2,3c1.7,0.8,3.4,1.9,3.4,4.4C181.1,112,179,113.5,176.5,113.5z"/>
	<path class="st1" d="M187.3,113.2V98.5h2v14.7H187.3z"/>
	<path class="st1" d="M203.3,113.5c-3.7,0-7.5-3-7.5-7.6s3.4-7.6,7.5-7.6c2.4,0,4,0.8,5.4,2l-1.2,1.5c-1.3-1-2.5-1.5-4.2-1.5
		c-3,0-5.3,2.2-5.3,5.6c0,3,2.4,5.6,5.4,5.6c2.1,0,3.8-1.2,4.3-3h-4.4v-1.9h6.8C210,110.6,206.8,113.5,203.3,113.5z"/>
	<path class="st1" d="M225.3,113.2v-6.3h-7.1v6.3h-2V98.5h2v6.5h7.1v-6.5h2v14.7H225.3z"/>
	<path class="st1" d="M238.7,100.4v12.8h-2v-12.8h-3v-1.9h8.1v1.9H238.7z"/>
	<path class="st1" d="M251.5,113.5c-1.5,0-3-0.4-4.3-1.5l1.1-1.6c0.8,0.7,2.1,1.1,3.1,1.1c1.5,0,2.5-0.7,2.5-2.1
		c0-1.2-1.1-1.9-2.5-2.6c-2.1-1.1-4.2-2-4.2-4.8c0-2.2,1.6-3.8,4.3-3.8c1.5,0,2.8,0.4,4,1.2l-1.1,1.7c-0.9-0.7-1.7-0.9-2.9-0.9
		c-1.1,0-2.1,0.6-2.1,1.7c0,1.6,1.4,2.1,3.2,3c1.7,0.8,3.4,1.9,3.4,4.4C256,112,254,113.5,251.5,113.5z"/>
	<path class="st1" d="M278,113.2l-1.1-1.3c-1.3,0.9-2.6,1.5-4.3,1.5c-2.3,0-4.2-1.6-4.2-3.7c0-2,1.4-3.6,2.9-4.5l-0.8-0.9
		c-0.6-0.7-1.2-1.6-1.2-2.7c0-1.9,1.7-3.4,3.5-3.4c2.1,0,3.5,1.4,3.5,3.4c0,1.8-1.5,3-2.5,3.8l3.4,3.9c0.5-0.4,0.9-0.9,1.3-1.5
		l1.4,1.2c-0.5,0.6-1,1.2-1.5,1.7l2.2,2.5H278z M272.4,106.6c-0.9,0.6-2,1.6-2,2.9c0,1.2,1.1,2.2,2.3,2.2c1.1,0,2.2-0.4,3.1-1.1
		L272.4,106.6z M272.9,99.9c-0.8,0-1.6,0.8-1.6,1.7c0,0.8,0.3,1.3,0.9,2l0.5,0.6c0.4-0.3,1.7-1.3,1.7-2.6
		C274.5,100.7,273.9,99.9,272.9,99.9z"/>
	<path class="st1" d="M302.8,113.2l-1.8-4.8h-4.7l-1.8,4.8h-2.1l5.6-14.7h1.3l5.7,14.7H302.8z M298.8,102.5
		c-0.1-0.1-0.1-0.3-0.1-0.4l-0.1,0.4l-1.5,4.1h3.3L298.8,102.5z"/>
	<path class="st1" d="M321,113.2l-7.7-10.7c-0.1-0.1-0.3-0.4-0.3-0.4s0,0.3,0,0.5v10.6h-2V98.5h1.7l7.6,10.5l0.3,0.4
		c0,0,0-0.3,0-0.5V98.5h2v14.7H321z"/>
	<path class="st1" d="M339,113.2l-1.8-4.8h-4.7l-1.8,4.8h-2.1l5.6-14.7h1.3l5.7,14.7H339z M335,102.5c-0.1-0.1-0.1-0.3-0.1-0.4
		l-0.1,0.4l-1.5,4.1h3.3L335,102.5z"/>
	<path class="st1" d="M347.3,113.2V98.5h2v12.8h5.6v1.9H347.3z"/>
	<path class="st1" d="M364.2,106.4v6.8h-2v-6.8l-5.1-7.9h2.3l3.5,5.5c0.1,0.1,0.2,0.4,0.2,0.4s0.1-0.3,0.2-0.4l3.5-5.5h2.3
		L364.2,106.4z"/>
	<path class="st1" d="M379.5,100.4v12.8h-2v-12.8h-3v-1.9h8.1v1.9H379.5z"/>
	<path class="st1" d="M388.9,113.2V98.5h2v14.7H388.9z"/>
	<path class="st1" d="M404.6,113.5c-3.6,0-7.2-2.9-7.2-7.6c0-4.3,3.1-7.6,7.3-7.6c2.7,0,4.2,0.9,5.4,2.3l-1.5,1.3
		c-1-1-2.3-1.7-3.9-1.7c-2.9,0-5.2,2.2-5.2,5.6c0,3.8,2.9,5.7,5.2,5.7c1.4,0,3.1-0.6,4.3-2l1.5,1.2
		C409.3,112.3,407.2,113.5,404.6,113.5z"/>
	<path class="st1" d="M420.5,113.5c-1.5,0-3-0.4-4.3-1.5l1.1-1.6c0.8,0.7,2.1,1.1,3.1,1.1c1.5,0,2.5-0.7,2.5-2.1
		c0-1.2-1.1-1.9-2.5-2.6c-2.1-1.1-4.2-2-4.2-4.8c0-2.2,1.6-3.8,4.3-3.8c1.5,0,2.8,0.4,4,1.2l-1.1,1.7c-0.9-0.7-1.7-0.9-2.9-0.9
		c-1.1,0-2.1,0.6-2.1,1.7c0,1.6,1.4,2.1,3.2,3c1.7,0.8,3.4,1.9,3.4,4.4C425,112,422.9,113.5,420.5,113.5z"/>
</g>
<g>
	<path class="st2" d="M88,108.1c0.5,0,1,0.4,1,1c0,0.5-0.4,1-1,1c-0.5,0-1-0.4-1-1C87,108.5,87.4,108.1,88,108.1z"/>
	<path class="st2" d="M75.9,25.8c0.5,0,1,0.4,1,1c0,0.5-0.4,1-1,1c-0.5,0-1-0.4-1-1C74.9,26.3,75.3,25.8,75.9,25.8z"/>
	<path class="st2" d="M82.3,115.7c0.5,0,0.8,0.4,0.8,0.8c0,0.5-0.4,0.8-0.8,0.8c-0.5,0-0.8-0.4-0.8-0.8
		C81.5,116.1,81.8,115.7,82.3,115.7z"/>
	<path class="st2" d="M64.6,117.7c0.4,0,0.8,0.3,0.8,0.8c0,0.4-0.3,0.8-0.8,0.8c-0.4,0-0.8-0.3-0.8-0.8
		C63.9,118,64.2,117.7,64.6,117.7z"/>
	<path class="st2" d="M36.8,110.4c0.3,0,0.5,0.2,0.5,0.5c0,0.3-0.2,0.5-0.5,0.5c-0.3,0-0.5-0.2-0.5-0.5
		C36.3,110.6,36.5,110.4,36.8,110.4z"/>
	<path class="st2" d="M85.3,37.4c0.8,0,1.4,0.6,1.4,1.4c0,0.8-0.6,1.4-1.4,1.4c-0.8,0-1.4-0.6-1.4-1.4C83.9,38,84.6,37.4,85.3,37.4z
		"/>
	<path class="st2" d="M38.5,37.1c0.5,0,0.9,0.4,0.9,0.9c0,0.5-0.4,0.9-0.9,0.9c-0.5,0-0.9-0.4-0.9-0.9C37.5,37.5,38,37.1,38.5,37.1z
		"/>
	<path class="st2" d="M93.8,100.8c0.9,0,1.7,0.8,1.7,1.7c0,0.9-0.8,1.7-1.7,1.7c-0.9,0-1.7-0.8-1.7-1.7
		C92.1,101.6,92.9,100.8,93.8,100.8z"/>
	<path class="st2" d="M75.1,18.3c0.6,0,1,0.5,1,1c0,0.6-0.5,1-1,1c-0.6,0-1-0.5-1-1C74.1,18.8,74.5,18.3,75.1,18.3z"/>
	<path class="st2" d="M43.7,100.2c0.7,0,1.2,0.6,1.2,1.2c0,0.7-0.6,1.2-1.2,1.2c-0.7,0-1.2-0.6-1.2-1.2
		C42.5,100.8,43,100.2,43.7,100.2z"/>
	<path class="st2" d="M114.6,64.6c0.6,0,1,0.5,1,1c0,0.6-0.5,1-1,1c-0.6,0-1-0.5-1-1C113.6,65,114.1,64.6,114.6,64.6z"/>
	<path class="st2" d="M93.6,97.5c0.7,0,1.2,0.5,1.2,1.2c0,0.7-0.5,1.2-1.2,1.2c-0.7,0-1.2-0.5-1.2-1.2
		C92.4,98.1,92.9,97.5,93.6,97.5z"/>
	<path class="st2" d="M97.3,93.6c1.1,0,2,0.9,2,2c0,1.1-0.9,2-2,2c-1.1,0-2-0.9-2-2C95.3,94.5,96.2,93.6,97.3,93.6z"/>
	<path class="st2" d="M119.1,90.3c0.4,0,0.7,0.3,0.7,0.8c0,0.4-0.3,0.8-0.7,0.8c-0.4,0-0.8-0.3-0.8-0.8
		C118.4,90.6,118.7,90.3,119.1,90.3z"/>
	<path class="st2" d="M90,99.2c1.2,0,2.2,1,2.2,2.2c0,1.2-1,2.2-2.2,2.2c-1.2,0-2.2-1-2.2-2.2C87.9,100.2,88.8,99.2,90,99.2z"/>
	<path class="st2" d="M103.8,28.2c0.3,0,0.5,0.2,0.5,0.5s-0.2,0.5-0.5,0.5c-0.3,0-0.5-0.2-0.5-0.5S103.5,28.2,103.8,28.2z"/>
	<path class="st2" d="M111.9,90.5c0.4,0,0.7,0.3,0.7,0.7c0,0.4-0.3,0.7-0.7,0.7c-0.4,0-0.7-0.3-0.7-0.7
		C111.2,90.8,111.5,90.5,111.9,90.5z"/>
	<path class="st2" d="M40.3,108.9c0.4,0,0.8,0.4,0.8,0.8c0,0.4-0.4,0.8-0.8,0.8c-0.4,0-0.8-0.4-0.8-0.8
		C39.6,109.3,39.9,108.9,40.3,108.9z"/>
	<path class="st2" d="M64.1,25.5c0.8,0,1.4,0.6,1.4,1.4c0,0.8-0.6,1.4-1.4,1.4c-0.8,0-1.4-0.6-1.4-1.4
		C62.6,26.2,63.3,25.5,64.1,25.5z"/>
	<path class="st2" d="M35.6,91.5c1.1,0,2,0.9,2,2c0,1.1-0.9,2-2,2c-1.1,0-2-0.9-2-2C33.7,92.4,34.5,91.5,35.6,91.5z"/>
	<path class="st2" d="M101.3,91.3c0.7,0,1.3,0.6,1.3,1.3c0,0.7-0.6,1.3-1.3,1.3c-0.7,0-1.3-0.6-1.3-1.3
		C100,91.9,100.6,91.3,101.3,91.3z"/>
	<path class="st2" d="M40.9,121.7c0.2,0,0.3,0.1,0.3,0.3c0,0.2-0.1,0.3-0.3,0.3c-0.2,0-0.3-0.1-0.3-0.3
		C40.6,121.9,40.7,121.7,40.9,121.7z"/>
	<path class="st2" d="M92,36.1c0.8,0,1.4,0.6,1.4,1.4c0,0.8-0.6,1.4-1.4,1.4c-0.8,0-1.4-0.6-1.4-1.4C90.6,36.7,91.2,36.1,92,36.1z"
		/>
	<path class="st2" d="M98.2,31.6c0.3,0,0.6,0.3,0.6,0.6c0,0.3-0.3,0.6-0.6,0.6c-0.3,0-0.6-0.3-0.6-0.6
		C97.6,31.9,97.8,31.6,98.2,31.6z"/>
	<path class="st2" d="M51.1,36.8c0.9,0,1.7,0.8,1.7,1.7c0,0.9-0.8,1.7-1.7,1.7c-0.9,0-1.7-0.8-1.7-1.7
		C49.4,37.6,50.1,36.8,51.1,36.8z"/>
	<path class="st2" d="M41.5,23c0.2,0,0.3,0.1,0.3,0.3c0,0.2-0.1,0.3-0.3,0.3c-0.2,0-0.3-0.1-0.3-0.3C41.2,23.1,41.4,23,41.5,23z"/>
	<path class="st2" d="M80.8,19.4c0.4,0,0.7,0.3,0.7,0.7c0,0.4-0.3,0.7-0.7,0.7c-0.4,0-0.7-0.3-0.7-0.7
		C80.1,19.8,80.4,19.4,80.8,19.4z"/>
	<path class="st2" d="M21,86.3c0.4,0,0.7,0.3,0.7,0.7c0,0.4-0.3,0.7-0.7,0.7c-0.4,0-0.7-0.3-0.7-0.7C20.3,86.6,20.6,86.3,21,86.3z"
		/>
	<path class="st2" d="M36,118.6c0.2,0,0.3,0.1,0.3,0.3s-0.1,0.3-0.3,0.3c-0.2,0-0.3-0.1-0.3-0.3S35.8,118.6,36,118.6z"/>
	<path class="st2" d="M95.3,45.5c1,0,1.9,0.8,1.9,1.9c0,1-0.8,1.9-1.9,1.9c-1,0-1.9-0.8-1.9-1.9C93.4,46.4,94.3,45.5,95.3,45.5z"/>
	<path class="st2" d="M51.6,29.3c0.7,0,1.3,0.6,1.3,1.3c0,0.7-0.6,1.3-1.3,1.3c-0.7,0-1.3-0.6-1.3-1.3
		C50.2,29.9,50.8,29.3,51.6,29.3z"/>
	<path class="st2" d="M65.8,112.4c0.8,0,1.5,0.7,1.5,1.5s-0.7,1.5-1.5,1.5c-0.8,0-1.5-0.7-1.5-1.5S65,112.4,65.8,112.4z"/>
	<path class="st2" d="M29.2,68.9c0.7,0,1.3,0.6,1.3,1.3c0,0.7-0.6,1.3-1.3,1.3c-0.7,0-1.3-0.6-1.3-1.3
		C27.9,69.5,28.5,68.9,29.2,68.9z"/>
	<path class="st2" d="M33.1,88.2c1,0,1.8,0.8,1.8,1.8c0,1-0.8,1.8-1.8,1.8c-1,0-1.8-0.8-1.8-1.8C31.3,89,32.1,88.2,33.1,88.2z"/>
	<path class="st2" d="M108.7,47.4c0.5,0,0.9,0.4,0.9,0.9c0,0.5-0.4,0.9-0.9,0.9c-0.5,0-0.9-0.4-0.9-0.9
		C107.8,47.8,108.2,47.4,108.7,47.4z"/>
	<path class="st2" d="M101.7,34.8c0.5,0,0.9,0.4,0.9,0.9c0,0.5-0.4,0.9-0.9,0.9c-0.5,0-0.9-0.4-0.9-0.9
		C100.9,35.2,101.3,34.8,101.7,34.8z"/>
	<path class="st2" d="M90,103.7c0.7,0,1.3,0.6,1.3,1.3c0,0.7-0.6,1.3-1.3,1.3s-1.3-0.6-1.3-1.3C88.8,104.3,89.3,103.7,90,103.7z"/>
	<path class="st2" d="M59.3,114.5c0.7,0,1.3,0.6,1.3,1.3c0,0.7-0.6,1.3-1.3,1.3c-0.7,0-1.3-0.6-1.3-1.3
		C58,115.1,58.6,114.5,59.3,114.5z"/>
	<path class="st2" d="M42.2,35.7c0.7,0,1.3,0.6,1.3,1.3c0,0.7-0.6,1.3-1.3,1.3c-0.7,0-1.3-0.6-1.3-1.3
		C40.9,36.2,41.4,35.7,42.2,35.7z"/>
	<path class="st2" d="M22.9,99.5c0.3,0,0.6,0.3,0.6,0.6c0,0.3-0.3,0.6-0.6,0.6s-0.6-0.3-0.6-0.6C22.3,99.8,22.6,99.5,22.9,99.5z"/>
	<path class="st2" d="M34.1,35.4c0.4,0,0.8,0.4,0.8,0.8c0,0.4-0.4,0.8-0.8,0.8c-0.4,0-0.8-0.4-0.8-0.8
		C33.3,35.8,33.7,35.4,34.1,35.4z"/>
	<path class="st2" d="M43.5,40.4c0.6,0,1.2,0.5,1.2,1.2c0,0.6-0.5,1.2-1.2,1.2c-0.6,0-1.1-0.5-1.1-1.2C42.3,41,42.8,40.4,43.5,40.4z
		"/>
	<path class="st2" d="M92.3,42.7c1,0,1.8,0.8,1.8,1.8c0,1-0.8,1.8-1.8,1.8c-1,0-1.8-0.8-1.8-1.8C90.5,43.5,91.3,42.7,92.3,42.7z"/>
	<path class="st2" d="M12.5,61.1c0.4,0,0.7,0.3,0.7,0.7c0,0.4-0.3,0.7-0.7,0.7c-0.4,0-0.7-0.3-0.7-0.7
		C11.8,61.4,12.1,61.1,12.5,61.1z"/>
	<path class="st2" d="M77.3,122.5c0.3,0,0.5,0.2,0.5,0.5c0,0.3-0.2,0.5-0.5,0.5c-0.3,0-0.5-0.2-0.5-0.5
		C76.9,122.7,77.1,122.5,77.3,122.5z"/>
	<path class="st2" d="M69.9,111.8c0.7,0,1.3,0.6,1.3,1.3c0,0.7-0.6,1.3-1.3,1.3c-0.7,0-1.3-0.6-1.3-1.3
		C68.6,112.3,69.1,111.8,69.9,111.8z"/>
	<path class="st2" d="M95.4,21.5c0.4,0,0.6,0.3,0.6,0.6c0,0.4-0.3,0.6-0.6,0.6c-0.4,0-0.6-0.3-0.6-0.6
		C94.8,21.8,95.1,21.5,95.4,21.5z"/>
	<path class="st2" d="M24.4,74.6c0.7,0,1.3,0.6,1.3,1.3c0,0.7-0.6,1.3-1.3,1.3c-0.7,0-1.3-0.6-1.3-1.3C23,75.2,23.6,74.6,24.4,74.6z
		"/>
	<path class="st2" d="M83.5,112.3c0.5,0,1,0.4,1,1c0,0.5-0.4,1-1,1c-0.5,0-1-0.4-1-1C82.5,112.7,83,112.3,83.5,112.3z"/>
	<path class="st2" d="M99.1,48.4c1.2,0,2.1,1,2.1,2.2c0,1.2-0.9,2.2-2.1,2.2s-2.1-1-2.1-2.2C97,49.4,97.9,48.4,99.1,48.4z"/>
	<circle class="st2" cx="19.5" cy="44" r="0.3"/>
	<path class="st2" d="M17.6,69.6c0.5,0,0.9,0.4,0.9,0.9c0,0.5-0.4,0.9-0.9,0.9c-0.5,0-0.9-0.4-0.9-0.9C16.6,70,17.1,69.6,17.6,69.6z
		"/>
	<path class="st2" d="M110.2,95.6c0.4,0,0.6,0.3,0.6,0.6c0,0.4-0.3,0.6-0.6,0.6c-0.4,0-0.6-0.3-0.6-0.6
		C109.5,95.9,109.8,95.6,110.2,95.6z"/>
	<path class="st2" d="M29.7,104.6c0.5,0,0.9,0.4,0.9,0.9c0,0.5-0.4,0.9-0.9,0.9c-0.5,0-0.9-0.4-0.9-0.9
		C28.9,105,29.3,104.6,29.7,104.6z"/>
	<path class="st2" d="M63.7,28.9c0.6,0,1.1,0.5,1.1,1.1c0,0.6-0.5,1.1-1.1,1.1c-0.6,0-1.1-0.5-1.1-1.1C62.5,29.4,63,28.9,63.7,28.9z
		"/>
	<path class="st2" d="M73.4,124.4c0.2,0,0.4,0.2,0.4,0.4c0,0.2-0.2,0.4-0.4,0.4s-0.4-0.2-0.4-0.4C73,124.6,73.2,124.4,73.4,124.4z"
		/>
	<path class="st2" d="M41,43.2c1.1,0,2.1,0.9,2.1,2.1c0,1.1-0.9,2.1-2.1,2.1c-1.1,0-2.1-0.9-2.1-2.1C38.9,44.2,39.9,43.2,41,43.2z"
		/>
	<path class="st2" d="M24.5,35.3c0.2,0,0.4,0.2,0.4,0.4c0,0.2-0.2,0.4-0.4,0.4c-0.2,0-0.4-0.2-0.4-0.4
		C24.1,35.4,24.3,35.3,24.5,35.3z"/>
	<path class="st2" d="M54.5,107c1.1,0,2,0.9,2,2c0,1.1-0.9,2-2,2c-1.1,0-2-0.9-2-2C52.5,107.9,53.4,107,54.5,107z"/>
	<ellipse class="st2" cx="104.4" cy="50.9" rx="1.3" ry="1.4"/>
	<path class="st2" d="M44,105.6c0.7,0,1.3,0.6,1.3,1.3c0,0.7-0.6,1.3-1.3,1.3c-0.7,0-1.3-0.6-1.3-1.3
		C42.8,106.2,43.3,105.6,44,105.6z"/>
	<path class="st2" d="M15.1,92.5c0.2,0,0.3,0.1,0.3,0.3c0,0.2-0.1,0.3-0.3,0.3c-0.2,0-0.3-0.1-0.3-0.3
		C14.8,92.7,14.9,92.5,15.1,92.5z"/>
	<path class="st2" d="M41.1,28.7c0.6,0,1,0.4,1,1c0,0.6-0.4,1-1,1c-0.5,0-1-0.4-1-1C40.1,29.2,40.5,28.7,41.1,28.7z"/>
	<path class="st2" d="M104,92.9c0.8,0,1.4,0.6,1.4,1.4c0,0.8-0.6,1.4-1.4,1.4c-0.8,0-1.4-0.6-1.4-1.4
		C102.6,93.5,103.2,92.9,104,92.9z"/>
	<path class="st2" d="M39.4,98c1,0,1.9,0.8,1.9,1.9c0,1-0.8,1.9-1.9,1.9c-1,0-1.9-0.8-1.9-1.9C37.5,98.9,38.3,98,39.4,98z"/>
	<path class="st2" d="M68.9,117.5c0.7,0,1.3,0.6,1.3,1.3c0,0.7-0.6,1.3-1.3,1.3c-0.7,0-1.3-0.6-1.3-1.3
		C67.6,118,68.2,117.5,68.9,117.5z"/>
	<path class="st2" d="M96.6,42.5c0.6,0,1.1,0.5,1.1,1.1c0,0.6-0.5,1.1-1.1,1.1c-0.6,0-1.1-0.5-1.1-1.1C95.5,43,96,42.5,96.6,42.5z"
		/>
	<path class="st2" d="M110.7,54.6c0.5,0,1,0.4,1,1c0,0.5-0.4,1-1,1c-0.5,0-1-0.4-1-1C109.7,55,110.2,54.6,110.7,54.6z"/>
	<path class="st2" d="M34.2,55.2c0.9,0,1.5,0.7,1.5,1.5c0,0.9-0.7,1.5-1.5,1.5c-0.9,0-1.5-0.7-1.5-1.5
		C32.6,55.9,33.3,55.2,34.2,55.2z"/>
	<path class="st2" d="M105.8,37.8c0.2,0,0.4,0.2,0.4,0.4c0,0.2-0.2,0.4-0.4,0.4c-0.2,0-0.4-0.2-0.4-0.4
		C105.3,38,105.5,37.8,105.8,37.8z"/>
	<path class="st2" d="M47.1,105.9c1,0,1.8,0.8,1.8,1.8c0,1-0.8,1.8-1.8,1.8c-1,0-1.8-0.8-1.8-1.8C45.4,106.7,46.1,105.9,47.1,105.9z
		"/>
	<path class="st2" d="M101.5,113.6c0.4,0,0.8,0.3,0.8,0.8c0,0.4-0.3,0.8-0.8,0.8c-0.4,0-0.8-0.3-0.8-0.8
		C100.7,113.9,101,113.6,101.5,113.6z"/>
	<path class="st2" d="M39.5,102.2c0.5,0,0.9,0.4,0.9,0.9c0,0.5-0.4,0.9-0.9,0.9c-0.5,0-0.9-0.4-0.9-0.9
		C38.6,102.6,39,102.2,39.5,102.2z"/>
	<path class="st2" d="M54.6,118.3c0.4,0,0.6,0.3,0.6,0.6c0,0.4-0.3,0.6-0.6,0.6c-0.4,0-0.6-0.3-0.6-0.6
		C54,118.6,54.2,118.3,54.6,118.3z"/>
	<path class="st2" d="M32.6,99.2c0.7,0,1.3,0.6,1.3,1.3c0,0.7-0.6,1.3-1.3,1.3c-0.7,0-1.3-0.6-1.3-1.3
		C31.3,99.8,31.9,99.2,32.6,99.2z"/>
	<path class="st2" d="M117.3,51.3c0.3,0,0.5,0.2,0.5,0.5c0,0.3-0.2,0.5-0.5,0.5c-0.3,0-0.5-0.2-0.5-0.5
		C116.8,51.5,117,51.3,117.3,51.3z"/>
	<path class="st2" d="M22.8,78.8c0.6,0,1.1,0.5,1.1,1.1c0,0.6-0.5,1.1-1.1,1.1c-0.6,0-1.1-0.5-1.1-1.1
		C21.7,79.2,22.2,78.8,22.8,78.8z"/>
	<path class="st2" d="M56,33.6c0.7,0,1.3,0.6,1.3,1.3c0,0.7-0.6,1.3-1.3,1.3c-0.7,0-1.3-0.6-1.3-1.3C54.7,34.2,55.3,33.6,56,33.6z"
		/>
	<circle class="st2" cx="39.9" cy="40.2" r="1.7"/>
	<path class="st2" d="M73.2,28.4c0.5,0,0.9,0.4,0.9,0.9c0,0.5-0.4,0.9-0.9,0.9c-0.5,0-0.9-0.4-0.9-0.9
		C72.3,28.9,72.7,28.4,73.2,28.4z"/>
	<path class="st2" d="M97.2,36.9c0.5,0,0.9,0.4,0.9,0.9c0,0.5-0.4,0.9-0.9,0.9c-0.5,0-0.9-0.4-0.9-0.9
		C96.3,37.3,96.7,36.9,97.2,36.9z"/>
	<path class="st2" d="M68.9,29.3c1,0,1.8,0.8,1.8,1.8c0,1-0.8,1.8-1.8,1.8c-1,0-1.8-0.8-1.8-1.8C67.1,30.1,67.9,29.3,68.9,29.3z"/>
	<path class="st2" d="M78,113.1c0.5,0,0.9,0.4,0.9,0.9c0,0.5-0.4,0.9-0.9,0.9c-0.5,0-0.9-0.4-0.9-0.9
		C77.1,113.5,77.5,113.1,78,113.1z"/>
	<path class="st2" d="M95.9,97.9c0.5,0,1,0.4,1,1c0,0.5-0.4,1-1,1s-1-0.4-1-1C94.9,98.4,95.3,97.9,95.9,97.9z"/>
	<path class="st2" d="M30.2,75.2c1.1,0,2,0.9,2,2c0,1.1-0.9,2-2,2c-1.1,0-2-0.9-2-2C28.2,76.1,29.1,75.2,30.2,75.2z"/>
	<path class="st2" d="M103,88.3c0.8,0,1.4,0.6,1.4,1.4c0,0.8-0.6,1.4-1.4,1.4c-0.8,0-1.4-0.6-1.4-1.4
		C101.5,88.9,102.2,88.3,103,88.3z"/>
	<path class="st2" d="M79.1,106.6c0.8,0,1.4,0.6,1.4,1.4c0,0.8-0.6,1.4-1.4,1.4c-0.8,0-1.4-0.6-1.4-1.4
		C77.7,107.3,78.3,106.6,79.1,106.6z"/>
	<path class="st2" d="M82,36.2c1,0,1.8,0.8,1.8,1.8c0,1-0.8,1.8-1.8,1.8c-1,0-1.8-0.8-1.8-1.8C80.2,37,81,36.2,82,36.2z"/>
	<path class="st2" d="M120.9,67.6c0.2,0,0.4,0.2,0.4,0.4c0,0.2-0.2,0.4-0.4,0.4c-0.2,0-0.4-0.2-0.4-0.4
		C120.5,67.7,120.7,67.6,120.9,67.6z"/>
	<path class="st2" d="M119.7,63.3c0.3,0,0.5,0.2,0.5,0.5c0,0.3-0.2,0.5-0.5,0.5s-0.5-0.2-0.5-0.5C119.2,63.5,119.4,63.3,119.7,63.3z
		"/>
	<path class="st2" d="M30,84c1.2,0,2.1,0.9,2.1,2.1c0,1.2-0.9,2.1-2.1,2.1c-1.2,0-2.1-0.9-2.1-2.1C27.9,84.9,28.8,84,30,84z"/>
	<path class="st2" d="M100.4,45.8c0.6,0,1.1,0.5,1.1,1.1c0,0.6-0.5,1.1-1.1,1.1c-0.6,0-1.1-0.5-1.1-1.1
		C99.3,46.4,99.8,45.8,100.4,45.8z"/>
	<path class="st2" d="M79.6,119.2c0.4,0,0.6,0.3,0.6,0.6c0,0.4-0.3,0.6-0.6,0.6c-0.4,0-0.6-0.3-0.6-0.6
		C78.9,119.4,79.2,119.2,79.6,119.2z"/>
	<path class="st2" d="M32.3,42.8c0.5,0,0.8,0.4,0.8,0.8c0,0.5-0.4,0.8-0.8,0.8c-0.5,0-0.8-0.4-0.8-0.8
		C31.5,43.2,31.8,42.8,32.3,42.8z"/>
	<path class="st2" d="M108.3,34.7c0.2,0,0.4,0.2,0.4,0.4c0,0.2-0.2,0.4-0.4,0.4c-0.2,0-0.4-0.2-0.4-0.4
		C107.9,34.9,108.1,34.7,108.3,34.7z"/>
	<path class="st2" d="M84,25c0.6,0,1,0.5,1,1c0,0.6-0.5,1-1,1c-0.6,0-1-0.5-1-1C82.9,25.4,83.4,25,84,25z"/>
	<path class="st2" d="M22.9,70.3c0.8,0,1.4,0.6,1.4,1.4c0,0.8-0.6,1.4-1.4,1.4c-0.8,0-1.4-0.6-1.4-1.4
		C21.5,70.9,22.1,70.3,22.9,70.3z"/>
	<path class="st2" d="M103.8,99.7c0.6,0,1,0.5,1,1c0,0.6-0.5,1-1,1c-0.6,0-1-0.5-1-1C102.7,100.2,103.2,99.7,103.8,99.7z"/>
	<path class="st2" d="M70.1,32.9c0.8,0,1.4,0.7,1.4,1.5c0,0.8-0.6,1.5-1.4,1.5c-0.8,0-1.4-0.7-1.4-1.5
		C68.6,33.6,69.3,32.9,70.1,32.9z"/>
	<path class="st2" d="M59.4,24.2c0.3,0,0.5,0.2,0.5,0.5c0,0.3-0.2,0.5-0.5,0.5c-0.3,0-0.5-0.2-0.5-0.5
		C58.8,24.5,59.1,24.2,59.4,24.2z"/>
	<path class="st2" d="M44.3,27.5c0.4,0,0.8,0.3,0.8,0.8c0,0.4-0.3,0.8-0.8,0.8c-0.4,0-0.8-0.3-0.8-0.8
		C43.5,27.9,43.8,27.5,44.3,27.5z"/>
	<path class="st2" d="M107.9,67.9c0.7,0,1.2,0.5,1.2,1.2c0,0.7-0.5,1.2-1.2,1.2c-0.7,0-1.2-0.5-1.2-1.2
		C106.7,68.5,107.3,67.9,107.9,67.9z"/>
	<path class="st2" d="M35.5,31c0.4,0,0.8,0.4,0.8,0.8c0,0.4-0.4,0.8-0.8,0.8c-0.4,0-0.8-0.4-0.8-0.8C34.7,31.4,35.1,31,35.5,31z"/>
	<path class="st2" d="M26.3,66c0.9,0,1.6,0.7,1.6,1.6c0,0.9-0.7,1.6-1.6,1.6c-0.9,0-1.6-0.7-1.6-1.6C24.7,66.8,25.4,66,26.3,66z"/>
	<path class="st2" d="M16,82.1c0.2,0,0.4,0.2,0.4,0.4c0,0.2-0.2,0.4-0.4,0.4c-0.2,0-0.4-0.2-0.4-0.4C15.6,82.3,15.8,82.1,16,82.1z"
		/>
	<path class="st2" d="M19.3,74.5c0.4,0,0.6,0.3,0.6,0.6c0,0.4-0.3,0.6-0.6,0.6c-0.4,0-0.6-0.3-0.6-0.6
		C18.6,74.8,18.9,74.5,19.3,74.5z"/>
	<path class="st2" d="M78.9,28.3c0.7,0,1.3,0.6,1.3,1.3c0,0.7-0.6,1.3-1.3,1.3c-0.7,0-1.3-0.6-1.3-1.3
		C77.6,28.9,78.2,28.3,78.9,28.3z"/>
	<path class="st2" d="M74.4,115c0.7,0,1.2,0.6,1.2,1.2c0,0.7-0.6,1.2-1.2,1.2c-0.7,0-1.2-0.5-1.2-1.2C73.2,115.6,73.8,115,74.4,115z
		"/>
	<path class="st2" d="M26,50.2c0.7,0,1.2,0.5,1.2,1.2c0,0.7-0.5,1.2-1.2,1.2c-0.7,0-1.2-0.5-1.2-1.2C24.8,50.7,25.3,50.2,26,50.2z"
		/>
	<path class="st2" d="M56.6,113.4c0.6,0,1.2,0.5,1.2,1.2c0,0.6-0.5,1.2-1.2,1.2c-0.6,0-1.2-0.5-1.2-1.2
		C55.4,113.9,55.9,113.4,56.6,113.4z"/>
	<path class="st2" d="M114.9,86.5c0.4,0,0.7,0.3,0.7,0.7c0,0.4-0.3,0.7-0.7,0.7c-0.4,0-0.7-0.3-0.7-0.7
		C114.2,86.8,114.6,86.5,114.9,86.5z"/>
	<path class="st2" d="M65.4,122.3c0.5,0,1,0.4,1,1c0,0.5-0.4,1-1,1c-0.5,0-1-0.4-1-1C64.4,122.8,64.8,122.3,65.4,122.3z"/>
	<path class="st2" d="M116.7,91.8c0.2,0,0.4,0.2,0.4,0.4c0,0.2-0.2,0.4-0.4,0.4c-0.2,0-0.4-0.2-0.4-0.4
		C116.4,92,116.5,91.8,116.7,91.8z"/>
	<path class="st2" d="M30.9,46.4c0.8,0,1.4,0.6,1.4,1.4c0,0.8-0.6,1.4-1.4,1.4c-0.8,0-1.4-0.6-1.4-1.4C29.5,47,30.1,46.4,30.9,46.4z
		"/>
	<path class="st2" d="M95.9,104c0.7,0,1.4,0.6,1.4,1.4c0,0.7-0.6,1.4-1.4,1.4c-0.7,0-1.4-0.6-1.4-1.4C94.6,104.6,95.2,104,95.9,104z
		"/>
	<path class="st2" d="M53,109.3c0.8,0,1.5,0.7,1.5,1.5c0,0.8-0.7,1.5-1.5,1.5c-0.8,0-1.5-0.7-1.5-1.5C51.5,110,52.2,109.3,53,109.3z
		"/>
	<path class="st2" d="M107.3,81.1c1,0,1.7,0.8,1.7,1.7c0,1-0.8,1.7-1.7,1.7c-1,0-1.7-0.8-1.7-1.7C105.6,81.9,106.4,81.1,107.3,81.1z
		"/>
	<path class="st2" d="M107.3,85.8c0.7,0,1.3,0.6,1.3,1.3c0,0.7-0.6,1.3-1.3,1.3c-0.7,0-1.3-0.6-1.3-1.3
		C106,86.4,106.6,85.8,107.3,85.8z"/>
	<path class="st2" d="M64.5,14.8c0.2,0,0.4,0.2,0.4,0.4c0,0.2-0.2,0.4-0.4,0.4c-0.2,0-0.4-0.2-0.4-0.4C64,15,64.2,14.8,64.5,14.8z"
		/>
	<path class="st2" d="M104.4,44.4c0.8,0,1.4,0.6,1.4,1.4c0,0.8-0.6,1.4-1.4,1.4c-0.8,0-1.4-0.6-1.4-1.4
		C103,45.1,103.6,44.4,104.4,44.4z"/>
	<path class="st2" d="M38.4,33.4c0.6,0,1,0.5,1,1c0,0.6-0.5,1-1,1c-0.6,0-1-0.5-1-1C37.4,33.9,37.9,33.4,38.4,33.4z"/>
	<path class="st2" d="M108.6,63.7c0.8,0,1.5,0.7,1.5,1.5c0,0.8-0.7,1.5-1.5,1.5c-0.8,0-1.5-0.7-1.5-1.5
		C107.1,64.3,107.8,63.7,108.6,63.7z"/>
	<path class="st2" d="M60.6,107.8c0.9,0,1.7,0.8,1.7,1.7c0,0.9-0.8,1.7-1.7,1.7c-0.9,0-1.7-0.8-1.7-1.7
		C58.9,108.6,59.7,107.8,60.6,107.8z"/>
	<path class="st2" d="M62,20.1c0.4,0,0.7,0.3,0.7,0.7c0,0.4-0.3,0.7-0.7,0.7c-0.4,0-0.7-0.3-0.7-0.7C61.3,20.4,61.6,20.1,62,20.1z"
		/>
	<path class="st2" d="M90.7,112.4c0.5,0,0.9,0.4,0.9,0.9c0,0.5-0.4,0.9-0.9,0.9c-0.5,0-0.9-0.4-0.9-0.9
		C89.8,112.8,90.2,112.4,90.7,112.4z"/>
	<path class="st2" d="M106.5,108.5c0.2,0,0.4,0.2,0.4,0.4c0,0.2-0.2,0.4-0.4,0.4c-0.2,0-0.4-0.2-0.4-0.4
		C106.1,108.6,106.3,108.5,106.5,108.5z"/>
	<circle class="st2" cx="107.1" cy="91.8" r="0.9"/>
	<path class="st2" d="M23.3,62.4c0.5,0,0.9,0.4,0.9,0.9c0,0.5-0.4,0.9-0.9,0.9c-0.5,0-0.9-0.4-0.9-0.9
		C22.4,62.8,22.8,62.4,23.3,62.4z"/>
	<path class="st2" d="M35.3,40.1c0.3,0,0.6,0.3,0.6,0.6c0,0.3-0.3,0.6-0.6,0.6c-0.3,0-0.6-0.3-0.6-0.6C34.8,40.4,35,40.1,35.3,40.1z
		"/>
	<path class="st2" d="M23.3,79.9c0.4,0,0.7,0.3,0.7,0.7c0,0.4-0.3,0.7-0.7,0.7c-0.4,0-0.7-0.3-0.7-0.7
		C22.6,80.2,22.9,79.9,23.3,79.9z"/>
	<path class="st2" d="M109.3,75.7c1,0,1.7,0.8,1.7,1.7c0,1-0.8,1.7-1.7,1.7c-1,0-1.7-0.8-1.7-1.7C107.5,76.5,108.3,75.7,109.3,75.7z
		"/>
	<circle class="st2" cx="92.2" cy="107.9" r="1.2"/>
	<path class="st2" d="M20.3,60.9c0.5,0,0.9,0.4,0.9,0.9c0,0.5-0.4,0.9-0.9,0.9c-0.5,0-0.9-0.4-0.9-0.9
		C19.4,61.3,19.8,60.9,20.3,60.9z"/>
	<path class="st2" d="M85.2,19.2c0.2,0,0.4,0.2,0.4,0.4c0,0.2-0.2,0.4-0.4,0.4c-0.2,0-0.4-0.2-0.4-0.4C84.8,19.3,85,19.2,85.2,19.2z
		"/>
	<path class="st2" d="M96.2,26.3c0.2,0,0.4,0.2,0.4,0.4c0,0.2-0.2,0.4-0.4,0.4c-0.2,0-0.4-0.2-0.4-0.4C95.8,26.5,96,26.3,96.2,26.3z
		"/>
	<path class="st2" d="M26.2,104.5c0.4,0,0.7,0.3,0.7,0.7c0,0.4-0.3,0.7-0.7,0.7c-0.4,0-0.7-0.3-0.7-0.7
		C25.5,104.8,25.8,104.5,26.2,104.5z"/>
	<path class="st2" d="M30.5,57.4c0.8,0,1.5,0.6,1.5,1.5c0,0.8-0.6,1.5-1.5,1.5c-0.8,0-1.5-0.7-1.5-1.5C29.1,58,29.7,57.4,30.5,57.4z
		"/>
	<path class="st2" d="M88.3,41.7c0.9,0,1.6,0.7,1.6,1.6c0,0.9-0.7,1.6-1.6,1.6c-0.9,0-1.6-0.7-1.6-1.6
		C86.7,42.4,87.4,41.7,88.3,41.7z"/>
	<path class="st2" d="M36.4,105.8c0.5,0,0.8,0.4,0.8,0.8c0,0.5-0.4,0.8-0.8,0.8c-0.5,0-0.8-0.4-0.8-0.8
		C35.6,106.1,35.9,105.8,36.4,105.8z"/>
	<path class="st2" d="M28.3,95.3c0.7,0,1.2,0.5,1.2,1.2c0,0.7-0.5,1.2-1.2,1.2c-0.7,0-1.2-0.5-1.2-1.2
		C27.1,95.8,27.7,95.3,28.3,95.3z"/>
	<path class="st2" d="M27.6,100.1c0.4,0,0.7,0.3,0.7,0.7c0,0.4-0.3,0.7-0.7,0.7c-0.4,0-0.7-0.3-0.7-0.7
		C26.8,100.5,27.2,100.1,27.6,100.1z"/>
	<path class="st2" d="M30.9,81.4c0.8,0,1.4,0.6,1.4,1.4c0,0.8-0.6,1.4-1.4,1.4c-0.8,0-1.4-0.6-1.4-1.4
		C29.5,82.1,30.1,81.4,30.9,81.4z"/>
	<path class="st2" d="M49.3,33.2c0.9,0,1.6,0.7,1.6,1.6c0,0.9-0.7,1.6-1.6,1.6c-0.9,0-1.6-0.7-1.6-1.6
		C47.6,33.9,48.4,33.2,49.3,33.2z"/>
	<path class="st2" d="M117.1,57c0.3,0,0.6,0.3,0.6,0.6c0,0.3-0.3,0.6-0.6,0.6c-0.3,0-0.6-0.3-0.6-0.6C116.5,57.3,116.8,57,117.1,57z
		"/>
	<path class="st2" d="M29.5,71.9c0.9,0,1.6,0.7,1.6,1.6c0,0.9-0.7,1.6-1.6,1.6c-0.9,0-1.6-0.7-1.6-1.6
		C27.9,72.6,28.6,71.9,29.5,71.9z"/>
	<path class="st2" d="M109.3,68c0.5,0,0.8,0.4,0.8,0.8c0,0.5-0.4,0.8-0.8,0.8c-0.5,0-0.8-0.4-0.8-0.8C108.4,68.4,108.8,68,109.3,68z
		"/>
	<path class="st2" d="M20.4,91c0.6,0,1,0.5,1,1s-0.5,1-1,1c-0.6,0-1-0.5-1-1S19.9,91,20.4,91z"/>
	<path class="st2" d="M53,33.2c0.6,0,1.1,0.5,1.1,1.1c0,0.6-0.5,1.1-1.1,1.1c-0.6,0-1.1-0.5-1.1-1.1C51.8,33.7,52.3,33.2,53,33.2z"
		/>
	<path class="st2" d="M70.6,19.9c0.5,0,0.9,0.4,0.9,0.9c0,0.5-0.4,0.9-0.9,0.9c-0.5,0-0.9-0.4-0.9-0.9
		C69.6,20.3,70.1,19.9,70.6,19.9z"/>
	<path class="st2" d="M111.6,50.1c0.3,0,0.6,0.2,0.6,0.6c0,0.3-0.2,0.6-0.6,0.6c-0.3,0-0.6-0.2-0.6-0.6
		C111.1,50.3,111.3,50.1,111.6,50.1z"/>
	<path class="st2" d="M75.3,32.1c1,0,1.8,0.8,1.8,1.8c0,1-0.8,1.8-1.8,1.8c-1,0-1.8-0.8-1.8-1.8C73.5,32.9,74.3,32.1,75.3,32.1z"/>
	<path class="st2" d="M106.1,59.9c0.5,0,1,0.4,1,1c0,0.5-0.4,1-1,1c-0.5,0-1-0.4-1-1C105.2,60.4,105.6,59.9,106.1,59.9z"/>
	<path class="st2" d="M120.3,83.2c0.3,0,0.5,0.2,0.5,0.5c0,0.3-0.2,0.5-0.5,0.5c-0.3,0-0.5-0.2-0.5-0.5
		C119.8,83.5,120,83.2,120.3,83.2z"/>
	<path class="st2" d="M24,56.5c0.7,0,1.3,0.6,1.3,1.3c0,0.7-0.6,1.3-1.3,1.3c-0.7,0-1.3-0.6-1.3-1.3C22.7,57.1,23.3,56.5,24,56.5z"
		/>
	<path class="st2" d="M115.1,69.1c0.5,0,1,0.4,1,1c0,0.5-0.4,1-1,1c-0.5,0-1-0.4-1-1C114.1,69.5,114.5,69.1,115.1,69.1z"/>
	<path class="st2" d="M28.4,42c0.3,0,0.6,0.3,0.6,0.6c0,0.3-0.3,0.6-0.6,0.6c-0.3,0-0.6-0.3-0.6-0.6C27.8,42.3,28.1,42,28.4,42z"/>
	<path class="st2" d="M101.6,105.6c0.6,0,1,0.5,1,1c0,0.6-0.5,1.1-1,1.1c-0.6,0-1-0.5-1-1.1C100.6,106.1,101,105.6,101.6,105.6z"/>
	<path class="st2" d="M27,45.3c0.4,0,0.7,0.3,0.7,0.7c0,0.4-0.3,0.7-0.7,0.7c-0.4,0-0.7-0.3-0.7-0.7C26.3,45.6,26.6,45.3,27,45.3z"
		/>
	<path class="st2" d="M22.4,47.2c0.6,0,1,0.4,1,1c0,0.6-0.4,1-1,1c-0.6,0-1-0.4-1-1C21.4,47.6,21.8,47.2,22.4,47.2z"/>
	<path class="st2" d="M59,120.6c0.5,0,0.9,0.4,0.9,0.9c0,0.5-0.4,0.9-0.9,0.9c-0.5,0-0.9-0.4-0.9-0.9C58.1,121,58.5,120.6,59,120.6z
		"/>
	<path class="st2" d="M104.6,53.8c0.6,0,1,0.5,1,1c0,0.6-0.5,1-1,1c-0.6,0-1-0.5-1-1C103.6,54.2,104,53.8,104.6,53.8z"/>
	<path class="st2" d="M111,41.3c0.3,0,0.6,0.2,0.6,0.6c0,0.3-0.2,0.6-0.6,0.6c-0.3,0-0.6-0.2-0.6-0.6
		C110.4,41.6,110.6,41.3,111,41.3z"/>
	<path class="st2" d="M37.7,46.2c0.9,0,1.7,0.8,1.7,1.7c0,0.9-0.8,1.7-1.7,1.7c-0.9,0-1.7-0.8-1.7-1.7C36,47,36.8,46.2,37.7,46.2z"
		/>
	<path class="st2" d="M60.1,24.6c0.5,0,0.8,0.4,0.8,0.8c0,0.5-0.4,0.8-0.8,0.8c-0.5,0-0.8-0.4-0.8-0.8C59.2,25,59.6,24.6,60.1,24.6z
		"/>
	<path class="st2" d="M24.9,85c0.8,0,1.4,0.6,1.4,1.4c0,0.8-0.6,1.4-1.4,1.4c-0.8,0-1.4-0.6-1.4-1.4C23.5,85.6,24.2,85,24.9,85z"/>
	<path class="st2" d="M26.5,77.8c0.8,0,1.5,0.7,1.5,1.5c0,0.8-0.7,1.5-1.5,1.5c-0.8,0-1.5-0.7-1.5-1.5C25,78.5,25.7,77.8,26.5,77.8z
		"/>
	<path class="st2" d="M85.9,101.7c0.8,0,1.5,0.7,1.5,1.5c0,0.8-0.7,1.5-1.5,1.5c-0.8,0-1.5-0.7-1.5-1.5
		C84.4,102.3,85.1,101.7,85.9,101.7z"/>
	<path class="st2" d="M86.7,107.3c0.7,0,1.3,0.6,1.3,1.3c0,0.7-0.6,1.3-1.3,1.3c-0.7,0-1.3-0.6-1.3-1.3
		C85.4,107.9,86,107.3,86.7,107.3z"/>
	<path class="st2" d="M103.7,40c0.5,0,0.9,0.4,0.9,0.9c0,0.5-0.4,0.9-0.9,0.9c-0.5,0-0.9-0.4-0.9-0.9C102.8,40.4,103.2,40,103.7,40z
		"/>
	<path class="st2" d="M37.6,114.6c0.4,0,0.8,0.3,0.8,0.8c0,0.4-0.3,0.8-0.8,0.8c-0.4,0-0.8-0.3-0.8-0.8
		C36.8,115,37.2,114.6,37.6,114.6z"/>
	<path class="st2" d="M117.2,76.2c0.4,0,0.7,0.3,0.7,0.7c0,0.4-0.3,0.7-0.7,0.7c-0.4,0-0.7-0.3-0.7-0.7
		C116.6,76.5,116.9,76.2,117.2,76.2z"/>
	<path class="st2" d="M48.5,21.1c0.4,0,0.8,0.3,0.8,0.8c0,0.4-0.3,0.8-0.8,0.8c-0.4,0-0.8-0.3-0.8-0.8C47.7,21.4,48,21.1,48.5,21.1z
		"/>
	<path class="st2" d="M95.6,110.9c0.4,0,0.7,0.3,0.7,0.7s-0.3,0.7-0.7,0.7c-0.4,0-0.7-0.3-0.7-0.7S95.2,110.9,95.6,110.9z"/>
	<path class="st2" d="M79.7,15.9c0.1,0,0.3,0.1,0.3,0.2c0,0.1-0.1,0.2-0.3,0.2c-0.1,0-0.3-0.1-0.3-0.2C79.4,16,79.5,15.9,79.7,15.9z
		"/>
	<path class="st2" d="M95,115.8c0.3,0,0.5,0.2,0.5,0.5c0,0.3-0.2,0.5-0.5,0.5c-0.3,0-0.5-0.2-0.5-0.5C94.5,116,94.7,115.8,95,115.8z
		"/>
	<path class="st2" d="M87.4,35.1c0.8,0,1.4,0.6,1.4,1.4c0,0.8-0.6,1.4-1.4,1.4c-0.8,0-1.4-0.6-1.4-1.4C86,35.7,86.6,35.1,87.4,35.1z
		"/>
	<path class="st2" d="M109.2,100.5c0.3,0,0.6,0.3,0.6,0.6c0,0.3-0.3,0.6-0.6,0.6c-0.3,0-0.6-0.3-0.6-0.6
		C108.6,100.8,108.9,100.5,109.2,100.5z"/>
	<path class="st2" d="M60.7,113.6c0.7,0,1.3,0.6,1.3,1.3c0,0.7-0.6,1.3-1.3,1.3c-0.7,0-1.3-0.6-1.3-1.3
		C59.4,114.2,60,113.6,60.7,113.6z"/>
	<path class="st2" d="M29.6,35.8c0.3,0,0.5,0.2,0.5,0.5c0,0.3-0.2,0.5-0.5,0.5c-0.3,0-0.5-0.2-0.5-0.5C29.1,36,29.4,35.8,29.6,35.8z
		"/>
	<path class="st2" d="M106.5,57.3c0.6,0,1,0.5,1,1c0,0.6-0.5,1-1,1c-0.6,0-1-0.5-1-1C105.5,57.7,106,57.3,106.5,57.3z"/>
	<path class="st2" d="M101.2,96.6c0.6,0,1.1,0.5,1.1,1.1c0,0.6-0.5,1.1-1.1,1.1c-0.6,0-1.1-0.5-1.1-1.1
		C100,97.1,100.5,96.6,101.2,96.6z"/>
	<path class="st2" d="M15.7,87.6c0.4,0,0.7,0.3,0.7,0.7c0,0.4-0.3,0.7-0.7,0.7c-0.4,0-0.7-0.3-0.7-0.7C15,88,15.4,87.6,15.7,87.6z"
		/>
	<path class="st2" d="M86.8,29.5c0.4,0,0.7,0.3,0.7,0.7c0,0.4-0.3,0.7-0.7,0.7c-0.4,0-0.7-0.3-0.7-0.7
		C86.1,29.8,86.4,29.5,86.8,29.5z"/>
	<path class="st2" d="M50.3,29.5c0.4,0,0.8,0.4,0.8,0.8c0,0.4-0.4,0.8-0.8,0.8c-0.4,0-0.8-0.4-0.8-0.8
		C49.5,29.8,49.8,29.5,50.3,29.5z"/>
	<path class="st2" d="M24.8,51.3c0.4,0,0.8,0.3,0.8,0.8c0,0.4-0.3,0.8-0.8,0.8c-0.4,0-0.8-0.3-0.8-0.8C24,51.6,24.3,51.3,24.8,51.3z
		"/>
	<path class="st2" d="M51.5,103.9c0.9,0,1.6,0.7,1.6,1.6c0,0.9-0.7,1.6-1.6,1.6c-0.9,0-1.6-0.7-1.6-1.6
		C50,104.6,50.7,103.9,51.5,103.9z"/>
	<path class="st2" d="M67.3,105.6c1.1,0,2,0.9,2,2c0,1.1-0.9,2-2,2c-1.1,0-2-0.9-2-2C65.3,106.6,66.2,105.6,67.3,105.6z"/>
	<path class="st2" d="M44.2,111.1c0.4,0,0.8,0.3,0.8,0.8c0,0.4-0.3,0.8-0.8,0.8c-0.4,0-0.8-0.3-0.8-0.8
		C43.4,111.5,43.8,111.1,44.2,111.1z"/>
	<path class="st2" d="M30.5,91c1,0,1.8,0.8,1.8,1.8c0,1-0.8,1.8-1.8,1.8c-1,0-1.8-0.8-1.8-1.8C28.7,91.8,29.5,91,30.5,91z"/>
	<path class="st2" d="M31.3,61.6c1,0,1.9,0.8,1.9,1.9c0,1-0.8,1.9-1.9,1.9c-1,0-1.9-0.8-1.9-1.9C29.5,62.5,30.3,61.6,31.3,61.6z"/>
	<path class="st2" d="M44.4,30.9c0.4,0,0.8,0.4,0.8,0.8c0,0.4-0.4,0.8-0.8,0.8c-0.4,0-0.8-0.4-0.8-0.8
		C43.5,31.2,43.9,30.9,44.4,30.9z"/>
	<path class="st2" d="M100.4,41.5c0.6,0,1.1,0.5,1.1,1.1c0,0.6-0.5,1.1-1.1,1.1c-0.6,0-1.1-0.5-1.1-1.1
		C99.3,41.9,99.8,41.5,100.4,41.5z"/>
	<path class="st2" d="M102.4,58.2c1.1,0,2,0.9,2,2c0,1.1-0.9,2-2,2c-1.1,0-2-0.9-2-2C100.5,59.1,101.3,58.2,102.4,58.2z"/>
	<path class="st2" d="M116.1,70.5c0.4,0,0.7,0.3,0.7,0.7s-0.3,0.7-0.7,0.7c-0.4,0-0.7-0.3-0.7-0.7S115.7,70.5,116.1,70.5z"/>
	<path class="st2" d="M105.4,75.1c0.6,0,1.1,0.5,1.1,1.1c0,0.6-0.5,1.1-1.1,1.1c-0.6,0-1.1-0.5-1.1-1.1
		C104.3,75.6,104.8,75.1,105.4,75.1z"/>
	<path class="st2" d="M37.2,42.3c0.7,0,1.4,0.6,1.4,1.4c0,0.7-0.6,1.4-1.4,1.4c-0.7,0-1.4-0.6-1.4-1.4
		C35.8,42.9,36.4,42.3,37.2,42.3z"/>
	<path class="st2" d="M47.5,113.4c0.6,0,1.1,0.5,1.1,1.1c0,0.6-0.5,1.1-1.1,1.1c-0.6,0-1.1-0.5-1.1-1.1
		C46.4,113.9,46.9,113.4,47.5,113.4z"/>
	<path class="st2" d="M45.3,34c1,0,1.8,0.8,1.8,1.8c0,1-0.8,1.8-1.8,1.8c-1,0-1.8-0.8-1.8-1.8C43.5,34.8,44.3,34,45.3,34z"/>
	<path class="st2" d="M90.3,38.6c0.7,0,1.3,0.6,1.3,1.3c0,0.7-0.6,1.3-1.3,1.3c-0.7,0-1.3-0.6-1.3-1.3
		C88.9,39.2,89.5,38.6,90.3,38.6z"/>
	<path class="st2" d="M83.6,29.6c0.5,0,1,0.4,1,1c0,0.5-0.4,1-1,1s-1-0.4-1-1C82.6,30.1,83,29.6,83.6,29.6z"/>
	<path class="st2" d="M27.5,54.4c0.8,0,1.5,0.7,1.5,1.5c0,0.8-0.7,1.5-1.5,1.5c-0.8,0-1.5-0.7-1.5-1.5C26,55.1,26.7,54.4,27.5,54.4z
		"/>
	<path class="st2" d="M37.6,95.5c0.8,0,1.5,0.7,1.5,1.5c0,0.8-0.7,1.5-1.5,1.5c-0.8,0-1.5-0.7-1.5-1.5
		C36.1,96.2,36.8,95.5,37.6,95.5z"/>
	<path class="st2" d="M64.8,123.5c0.4,0,0.7,0.3,0.7,0.7c0,0.4-0.3,0.7-0.7,0.7c-0.4,0-0.7-0.3-0.7-0.7
		C64.1,123.8,64.4,123.5,64.8,123.5z"/>
	<path class="st2" d="M36.7,26c0.2,0,0.3,0.1,0.3,0.3c0,0.2-0.1,0.3-0.3,0.3c-0.2,0-0.3-0.1-0.3-0.3C36.3,26.2,36.5,26,36.7,26z"/>
	<path class="st2" d="M37.5,105.2c0.5,0,0.9,0.4,0.9,0.9c0,0.5-0.4,0.9-0.9,0.9c-0.5,0-0.9-0.4-0.9-0.9
		C36.5,105.6,37,105.2,37.5,105.2z"/>
	<path class="st2" d="M66,22.8c0.4,0,0.7,0.3,0.7,0.7c0,0.4-0.3,0.7-0.7,0.7c-0.4,0-0.7-0.3-0.7-0.7C65.3,23.1,65.6,22.8,66,22.8z"
		/>
	<path class="st2" d="M20.4,55.2c0.3,0,0.5,0.2,0.5,0.5c0,0.3-0.2,0.5-0.5,0.5c-0.3,0-0.5-0.2-0.5-0.5
		C19.9,55.5,20.2,55.2,20.4,55.2z"/>
	<path class="st2" d="M103.9,108.7c0.3,0,0.6,0.3,0.6,0.6c0,0.3-0.3,0.6-0.6,0.6c-0.3,0-0.6-0.3-0.6-0.6
		C103.3,108.9,103.6,108.7,103.9,108.7z"/>
	<path class="st2" d="M101.3,55.7c0.8,0,1.4,0.6,1.4,1.4c0,0.8-0.6,1.4-1.4,1.4c-0.8,0-1.4-0.6-1.4-1.4
		C99.9,56.3,100.5,55.7,101.3,55.7z"/>
	<path class="st2" d="M70.1,16.5c0.2,0,0.4,0.2,0.4,0.4c0,0.2-0.2,0.4-0.4,0.4c-0.2,0-0.4-0.2-0.4-0.4
		C69.7,16.7,69.9,16.5,70.1,16.5z"/>
	<path class="st2" d="M26.2,90.6c0.5,0,0.8,0.4,0.8,0.8c0,0.5-0.4,0.8-0.8,0.8c-0.5,0-0.8-0.4-0.8-0.8
		C25.4,90.9,25.7,90.6,26.2,90.6z"/>
	<path class="st2" d="M33.4,95.5c0.5,0,1,0.4,1,1c0,0.5-0.4,1-1,1c-0.5,0-1-0.4-1-1C32.4,95.9,32.9,95.5,33.4,95.5z"/>
	<path class="st2" d="M52.6,114.8c0.6,0,1.1,0.5,1.1,1.1c0,0.6-0.5,1.1-1.1,1.1c-0.6,0-1.1-0.5-1.1-1.1
		C51.5,115.3,52,114.8,52.6,114.8z"/>
	<path class="st2" d="M55.3,34.7c0.9,0,1.7,0.8,1.7,1.7c0,0.9-0.8,1.7-1.7,1.7c-0.9,0-1.7-0.8-1.7-1.7
		C53.6,35.5,54.4,34.7,55.3,34.7z"/>
	<path class="st2" d="M117.5,96.3c0.2,0,0.4,0.2,0.4,0.4c0,0.2-0.2,0.4-0.4,0.4c-0.2,0-0.4-0.2-0.4-0.4
		C117,96.5,117.2,96.3,117.5,96.3z"/>
	<path class="st2" d="M50,109.5c0.7,0,1.2,0.5,1.2,1.2c0,0.7-0.5,1.2-1.2,1.2c-0.7,0-1.2-0.5-1.2-1.2C48.8,110,49.3,109.5,50,109.5z
		"/>
	<path class="st2" d="M88.9,21.9c0.3,0,0.5,0.2,0.5,0.5c0,0.3-0.2,0.5-0.5,0.5c-0.3,0-0.5-0.2-0.5-0.5
		C88.3,22.1,88.6,21.9,88.9,21.9z"/>
	<path class="st2" d="M13.1,67c0.3,0,0.6,0.3,0.6,0.6c0,0.3-0.3,0.6-0.6,0.6c-0.3,0-0.6-0.3-0.6-0.6C12.5,67.3,12.8,67,13.1,67z"/>
	<path class="st2" d="M110.1,86.6c0.4,0,0.8,0.3,0.8,0.8s-0.3,0.8-0.8,0.8c-0.4,0-0.8-0.3-0.8-0.8S109.6,86.6,110.1,86.6z"/>
	<path class="st2" d="M46,102.6c0.9,0,1.7,0.8,1.7,1.7c0,0.9-0.8,1.7-1.7,1.7c-0.9,0-1.7-0.8-1.7-1.7C44.3,103.4,45,102.6,46,102.6z
		"/>
	<path class="st2" d="M26.9,59.7c0.8,0,1.4,0.6,1.4,1.4c0,0.8-0.6,1.4-1.4,1.4c-0.8,0-1.4-0.6-1.4-1.4
		C25.5,60.4,26.1,59.7,26.9,59.7z"/>
	<path class="st2" d="M45.8,118.8c0.4,0,0.8,0.3,0.8,0.8c0,0.4-0.3,0.8-0.8,0.8c-0.4,0-0.8-0.3-0.8-0.8
		C45.1,119.1,45.4,118.8,45.8,118.8z"/>
	<path class="st2" d="M35.7,101.5c0.8,0,1.4,0.6,1.4,1.4c0,0.8-0.6,1.4-1.4,1.4c-0.8,0-1.4-0.6-1.4-1.4
		C34.3,102.1,34.9,101.5,35.7,101.5z"/>
	<path class="st2" d="M33.8,50.3c0.8,0,1.4,0.6,1.4,1.4c0,0.8-0.6,1.4-1.4,1.4c-0.8,0-1.4-0.6-1.4-1.4C32.3,50.9,33,50.3,33.8,50.3z
		"/>
	<path class="st2" d="M25.5,106.9c0.2,0,0.4,0.2,0.4,0.4c0,0.2-0.2,0.4-0.4,0.4c-0.2,0-0.4-0.2-0.4-0.4
		C25.1,107.1,25.3,106.9,25.5,106.9z"/>
	<path class="st2" d="M110.6,76.2c0.6,0,1,0.5,1,1c0,0.6-0.5,1-1,1s-1-0.5-1-1C109.6,76.7,110,76.2,110.6,76.2z"/>
	<path class="st2" d="M12.6,73.1c0.4,0,0.6,0.3,0.6,0.6c0,0.4-0.3,0.6-0.6,0.6c-0.4,0-0.6-0.3-0.6-0.6C12,73.4,12.3,73.1,12.6,73.1z
		"/>
	<path class="st2" d="M26.8,81.7c0.7,0,1.2,0.5,1.2,1.2c0,0.7-0.5,1.2-1.2,1.2c-0.7,0-1.2-0.5-1.2-1.2
		C25.5,82.3,26.1,81.7,26.8,81.7z"/>
	<path class="st2" d="M99.6,111.3c0.2,0,0.4,0.2,0.4,0.4c0,0.2-0.2,0.4-0.4,0.4c-0.2,0-0.4-0.2-0.4-0.4
		C99.2,111.4,99.4,111.3,99.6,111.3z"/>
	<path class="st2" d="M102.8,82.7c0.8,0,1.4,0.6,1.4,1.4c0,0.8-0.6,1.4-1.4,1.4c-0.8,0-1.4-0.6-1.4-1.4
		C101.4,83.3,102,82.7,102.8,82.7z"/>
	<path class="st2" d="M93.5,31.2c0.3,0,0.6,0.3,0.6,0.6c0,0.3-0.3,0.6-0.6,0.6c-0.3,0-0.6-0.3-0.6-0.6C93,31.5,93.2,31.2,93.5,31.2z
		"/>
	<path class="st2" d="M31.8,85.2c0.8,0,1.4,0.6,1.4,1.4c0,0.8-0.6,1.4-1.4,1.4c-0.8,0-1.4-0.6-1.4-1.4C30.4,85.9,31,85.2,31.8,85.2z
		"/>
	<path class="st2" d="M29.5,65.4c0.7,0,1.3,0.6,1.3,1.3c0,0.7-0.6,1.3-1.3,1.3s-1.3-0.6-1.3-1.3C28.2,66,28.8,65.4,29.5,65.4z"/>
	<path class="st2" d="M82.9,107.7c0.7,0,1.3,0.6,1.3,1.3c0,0.7-0.6,1.3-1.3,1.3c-0.7,0-1.3-0.6-1.3-1.3
		C81.6,108.3,82.2,107.7,82.9,107.7z"/>
	<path class="st2" d="M55,21.5c0.3,0,0.5,0.2,0.5,0.5c0,0.3-0.2,0.5-0.5,0.5c-0.3,0-0.5-0.2-0.5-0.5C54.5,21.8,54.7,21.5,55,21.5z"
		/>
	<path class="st2" d="M104.8,78.2c1.1,0,2,0.9,2,2c0,1.1-0.9,2-2,2c-1.1,0-2-0.9-2-2C102.9,79.1,103.8,78.2,104.8,78.2z"/>
	<path class="st2" d="M24.8,66.7c0.6,0,1,0.5,1,1c0,0.6-0.5,1-1,1c-0.6,0-1-0.5-1-1C23.7,67.2,24.2,66.7,24.8,66.7z"/>
	<path class="st2" d="M12,72.9c0.3,0,0.5,0.2,0.5,0.5c0,0.3-0.2,0.5-0.5,0.5c-0.3,0-0.5-0.2-0.5-0.5C11.5,73.1,11.7,72.9,12,72.9z"
		/>
	<path class="st2" d="M60.4,32.6c1.1,0,2.1,0.9,2.1,2.1c0,1.1-0.9,2.1-2.1,2.1c-1.1,0-2.1-0.9-2.1-2.1
		C58.3,33.5,59.3,32.6,60.4,32.6z"/>
	<path class="st2" d="M45.7,23c0.2,0,0.4,0.2,0.4,0.4c0,0.2-0.2,0.4-0.4,0.4c-0.2,0-0.4-0.2-0.4-0.4C45.3,23.2,45.5,23,45.7,23z"/>
	<path class="st2" d="M50.7,26.2c0.4,0,0.8,0.3,0.8,0.8c0,0.4-0.3,0.8-0.8,0.8c-0.4,0-0.8-0.3-0.8-0.8C50,26.5,50.3,26.2,50.7,26.2z
		"/>
	<path class="st2" d="M109,71.6c0.6,0,1.2,0.5,1.2,1.2c0,0.7-0.5,1.2-1.2,1.2c-0.6,0-1.2-0.5-1.2-1.2
		C107.8,72.1,108.3,71.6,109,71.6z"/>
	<path class="st2" d="M107.2,42.2c0.6,0,1,0.5,1,1c0,0.6-0.5,1-1,1s-1-0.5-1-1C106.2,42.6,106.7,42.2,107.2,42.2z"/>
	<path class="st2" d="M120.3,63c0.2,0,0.4,0.2,0.4,0.4c0,0.2-0.2,0.4-0.4,0.4c-0.2,0-0.4-0.2-0.4-0.4C119.9,63.2,120.1,63,120.3,63z
		"/>
	<circle class="st2" cx="67.6" cy="27.3" r="1"/>
	<path class="st2" d="M115.3,80.7c0.5,0,0.9,0.4,0.9,0.9c0,0.5-0.4,0.9-0.9,0.9c-0.5,0-0.9-0.4-0.9-0.9
		C114.4,81.1,114.8,80.7,115.3,80.7z"/>
	<path class="st2" d="M108.1,52.2c0.5,0,0.8,0.4,0.8,0.8c0,0.5-0.4,0.8-0.8,0.8s-0.8-0.4-0.8-0.8C107.2,52.5,107.6,52.2,108.1,52.2z
		"/>
	<circle class="st2" cx="99.9" cy="102.7" r="0.8"/>
	<path class="st2" d="M59.2,19.7c0.2,0,0.4,0.2,0.4,0.4c0,0.2-0.2,0.4-0.4,0.4s-0.4-0.2-0.4-0.4C58.7,19.9,58.9,19.7,59.2,19.7z"/>
	<path class="st2" d="M51.1,18.5c0.3,0,0.5,0.2,0.5,0.5c0,0.3-0.2,0.5-0.5,0.5c-0.3,0-0.5-0.2-0.5-0.5
		C50.6,18.7,50.8,18.5,51.1,18.5z"/>
	<path class="st2" d="M56.3,27.6c0.7,0,1.2,0.5,1.2,1.2c0,0.7-0.5,1.2-1.2,1.2c-0.7,0-1.2-0.5-1.2-1.2
		C55.1,28.1,55.7,27.6,56.3,27.6z"/>
	<circle class="st2" cx="111" cy="82.1" r="1.1"/>
	<path class="st2" d="M114.1,58.8c0.5,0,0.8,0.4,0.8,0.8c0,0.5-0.4,0.8-0.8,0.8c-0.5,0-0.8-0.4-0.8-0.8
		C113.3,59.2,113.6,58.8,114.1,58.8z"/>
	<path class="st2" d="M30.5,51.7c0.7,0,1.4,0.6,1.4,1.4c0,0.7-0.6,1.4-1.4,1.4c-0.7,0-1.4-0.6-1.4-1.4
		C29.1,52.3,29.8,51.7,30.5,51.7z"/>
	<path class="st2" d="M87.2,115.5c0.4,0,0.6,0.3,0.6,0.6c0,0.4-0.3,0.6-0.6,0.6c-0.4,0-0.6-0.3-0.6-0.6
		C86.6,115.8,86.9,115.5,87.2,115.5z"/>
	<path class="st2" d="M71.8,25c0.4,0,0.8,0.3,0.8,0.8c0,0.4-0.3,0.8-0.8,0.8c-0.4,0-0.8-0.3-0.8-0.8C71.1,25.3,71.4,25,71.8,25z"/>
	<path class="st2" d="M88.7,32.2c0.4,0,0.7,0.3,0.7,0.7c0,0.4-0.3,0.7-0.7,0.7c-0.4,0-0.7-0.3-0.7-0.7
		C87.9,32.5,88.3,32.2,88.7,32.2z"/>
	<path class="st2" d="M19.2,50c0.2,0,0.4,0.2,0.4,0.4c0,0.2-0.2,0.4-0.4,0.4c-0.2,0-0.4-0.2-0.4-0.4C18.8,50.2,19,50,19.2,50z"/>
	<path class="st2" d="M74.6,118.6c0.4,0,0.7,0.3,0.7,0.7c0,0.4-0.3,0.7-0.7,0.7c-0.4,0-0.7-0.3-0.7-0.7
		C73.9,118.9,74.2,118.6,74.6,118.6z"/>
	<path class="st2" d="M15.7,77.5c0.5,0,0.9,0.4,0.9,0.9c0,0.5-0.4,0.9-0.9,0.9c-0.5,0-0.9-0.4-0.9-0.9
		C14.8,77.9,15.2,77.5,15.7,77.5z"/>
	<path class="st2" d="M58.9,30c0.9,0,1.7,0.7,1.7,1.7c0,0.9-0.7,1.7-1.7,1.7c-0.9,0-1.7-0.7-1.7-1.7C57.2,30.7,58,30,58.9,30z"/>
	<path class="st2" d="M65.1,32.4c0.8,0,1.5,0.7,1.5,1.5c0,0.8-0.7,1.5-1.5,1.5c-0.8,0-1.5-0.7-1.5-1.5C63.7,33,64.3,32.4,65.1,32.4z
		"/>
	<path class="st2" d="M79.7,31.3c0.7,0,1.2,0.5,1.2,1.2c0,0.7-0.5,1.2-1.2,1.2c-0.7,0-1.2-0.5-1.2-1.2C78.5,31.8,79,31.3,79.7,31.3z
		"/>
	<path class="st2" d="M34.1,47.1c0.5,0,0.9,0.4,0.9,0.9c0,0.5-0.4,0.9-0.9,0.9c-0.5,0-0.9-0.4-0.9-0.9
		C33.2,47.5,33.6,47.1,34.1,47.1z"/>
	<path class="st2" d="M101.4,49.9c1.1,0,2,0.9,2,2c0,1.1-0.9,2-2,2c-1.1,0-2-0.9-2-2C99.4,50.8,100.3,49.9,101.4,49.9z"/>
	<path class="st2" d="M71.6,33.1c1,0,1.7,0.8,1.7,1.7c0,1-0.8,1.7-1.7,1.7c-1,0-1.7-0.8-1.7-1.7C69.9,33.9,70.7,33.1,71.6,33.1z"/>
	<path class="st2" d="M91,25.7c0.5,0,1,0.4,1,1c0,0.5-0.4,1-1,1c-0.5,0-1-0.4-1-1C90,26.2,90.4,25.7,91,25.7z"/>
	<path class="st2" d="M16.7,54.3c0.3,0,0.5,0.2,0.5,0.5c0,0.3-0.2,0.5-0.5,0.5c-0.3,0-0.5-0.2-0.5-0.5
		C16.1,54.6,16.4,54.3,16.7,54.3z"/>
	<path class="st2" d="M105.5,95.4c0.4,0,0.7,0.3,0.7,0.7s-0.3,0.7-0.7,0.7c-0.4,0-0.7-0.3-0.7-0.7S105.1,95.4,105.5,95.4z"/>
	<path class="st2" d="M79.9,34.3c0.7,0,1.3,0.6,1.3,1.3c0,0.7-0.6,1.3-1.3,1.3c-0.7,0-1.3-0.6-1.3-1.3
		C78.6,34.9,79.2,34.3,79.9,34.3z"/>
	<path class="st2" d="M113.3,100.2c0.3,0,0.5,0.2,0.5,0.5s-0.2,0.5-0.5,0.5c-0.3,0-0.5-0.2-0.5-0.5S113.1,100.2,113.3,100.2z"/>
	<path class="st2" d="M104.9,70.7c0.8,0,1.5,0.7,1.5,1.5c0,0.8-0.7,1.5-1.5,1.5c-0.8,0-1.5-0.7-1.5-1.5
		C103.4,71.4,104.1,70.7,104.9,70.7z"/>
	<path class="st2" d="M78.9,109.6c0.5,0,1,0.4,1,1c0,0.5-0.4,1-1,1c-0.5,0-1-0.4-1-1C77.9,110,78.3,109.6,78.9,109.6z"/>
	<path class="st2" d="M42.7,115.1c0.5,0,0.9,0.4,0.9,0.9c0,0.5-0.4,0.9-0.9,0.9c-0.5,0-0.9-0.4-0.9-0.9
		C41.8,115.5,42.2,115.1,42.7,115.1z"/>
	<path class="st2" d="M120.1,73.7c0.2,0,0.3,0.2,0.3,0.3c0,0.2-0.2,0.3-0.3,0.3c-0.2,0-0.3-0.2-0.3-0.3
		C119.8,73.9,119.9,73.7,120.1,73.7z"/>
	<path class="st2" d="M79.8,24.4c0.4,0,0.8,0.4,0.8,0.8c0,0.4-0.4,0.8-0.8,0.8S79,25.6,79,25.2C79,24.7,79.3,24.4,79.8,24.4z"/>
	<path class="st2" d="M11.8,61.4c0.2,0,0.4,0.2,0.4,0.4c0,0.2-0.2,0.4-0.4,0.4c-0.2,0-0.4-0.2-0.4-0.4
		C11.4,61.5,11.6,61.4,11.8,61.4z"/>
	<path class="st2" d="M119.6,79.8c0.2,0,0.4,0.2,0.4,0.4c0,0.2-0.2,0.4-0.4,0.4c-0.2,0-0.4-0.2-0.4-0.4
		C119.2,80,119.4,79.8,119.6,79.8z"/>
	<path class="st2" d="M104.3,63.7c0.8,0,1.4,0.6,1.4,1.4c0,0.8-0.6,1.4-1.4,1.4c-0.8,0-1.4-0.6-1.4-1.4
		C102.9,64.4,103.5,63.7,104.3,63.7z"/>
	<path class="st2" d="M28.3,62.6c0.6,0,1.1,0.5,1.1,1.1c0,0.6-0.5,1.1-1.1,1.1c-0.6,0-1.1-0.5-1.1-1.1
		C27.3,63.1,27.7,62.6,28.3,62.6z"/>
	<path class="st2" d="M64,108.6c0.9,0,1.6,0.7,1.6,1.6c0,0.9-0.7,1.6-1.6,1.6c-0.9,0-1.6-0.7-1.6-1.6
		C62.5,109.3,63.2,108.6,64,108.6z"/>
	<path class="st2" d="M120.1,53.5c0.2,0,0.3,0.1,0.3,0.3c0,0.2-0.1,0.3-0.3,0.3c-0.2,0-0.3-0.1-0.3-0.3
		C119.8,53.7,120,53.5,120.1,53.5z"/>
	<path class="st2" d="M84.2,32.4c1,0,1.8,0.8,1.8,1.8c0,1-0.8,1.8-1.8,1.8c-1,0-1.8-0.8-1.8-1.8C82.5,33.2,83.3,32.4,84.2,32.4z"/>
	<path class="st2" d="M51,120.6c0.4,0,0.7,0.3,0.7,0.7c0,0.4-0.3,0.7-0.7,0.7c-0.4,0-0.7-0.3-0.7-0.7
		C50.4,120.9,50.7,120.6,51,120.6z"/>
	<path class="st2" d="M107.8,104.7c0.3,0,0.6,0.3,0.6,0.6c0,0.3-0.3,0.6-0.6,0.6c-0.3,0-0.6-0.3-0.6-0.6
		C107.2,104.9,107.5,104.7,107.8,104.7z"/>
	<path class="st2" d="M21.6,103.5c0.2,0,0.4,0.2,0.4,0.4c0,0.2-0.2,0.4-0.4,0.4c-0.2,0-0.4-0.2-0.4-0.4
		C21.2,103.7,21.4,103.5,21.6,103.5z"/>
	<path class="st2" d="M110.1,59.9c0.8,0,1.4,0.6,1.4,1.4c0,0.8-0.6,1.4-1.4,1.4c-0.8,0-1.4-0.6-1.4-1.4
		C108.7,60.5,109.4,59.9,110.1,59.9z"/>
	<path class="st2" d="M74.3,108.8c0.7,0,1.3,0.6,1.3,1.3c0,0.7-0.6,1.3-1.3,1.3c-0.7,0-1.3-0.6-1.3-1.3
		C73,109.3,73.6,108.8,74.3,108.8z"/>
	<path class="st2" d="M92.4,41.8c0.6,0,1,0.5,1,1c0,0.6-0.5,1-1,1c-0.6,0-1-0.5-1-1C91.3,42.3,91.8,41.8,92.4,41.8z"/>
	<path class="st2" d="M72.8,111.5c0.6,0,1.1,0.5,1.1,1.1c0,0.6-0.5,1.1-1.1,1.1c-0.6,0-1.1-0.5-1.1-1.1
		C71.7,112,72.1,111.5,72.8,111.5z"/>
	<path class="st2" d="M96.7,37.7c0.7,0,1.2,0.6,1.2,1.2c0,0.7-0.6,1.2-1.2,1.2c-0.7,0-1.2-0.6-1.2-1.2
		C95.5,38.3,96.1,37.7,96.7,37.7z"/>
	<path class="st2" d="M59.5,125.8c0.3,0,0.5,0.2,0.5,0.5c0,0.3-0.2,0.5-0.5,0.5c-0.3,0-0.5-0.2-0.5-0.5
		C59,126.1,59.3,125.8,59.5,125.8z"/>
	<path class="st2" d="M45.3,46.4c0.9,0,1.6,0.7,1.6,1.6c0,0.9-0.7,1.6-1.6,1.6c-0.9,0-1.6-0.7-1.6-1.6
		C43.8,47.1,44.4,46.4,45.3,46.4z"/>
	<path class="st2" d="M79.8,100.8c0.8,0,1.4,0.6,1.4,1.4c0,0.8-0.6,1.4-1.4,1.4c-0.8,0-1.4-0.6-1.4-1.4
		C78.4,101.5,79,100.8,79.8,100.8z"/>
	<path class="st2" d="M34.8,64.3c1.1,0,1.9,0.9,1.9,1.9c0,1.1-0.9,1.9-1.9,1.9c-1.1,0-1.9-0.9-1.9-1.9
		C32.9,65.2,33.7,64.3,34.8,64.3z"/>
	<path class="st2" d="M84.2,39.5c0.7,0,1.4,0.6,1.4,1.4s-0.6,1.4-1.4,1.4c-0.7,0-1.4-0.6-1.4-1.4S83.5,39.5,84.2,39.5z"/>
	<path class="st2" d="M38.5,54.4c0.8,0,1.5,0.7,1.5,1.5c0,0.8-0.7,1.5-1.5,1.5c-0.8,0-1.5-0.7-1.5-1.5
		C37.1,55.1,37.7,54.4,38.5,54.4z"/>
	<path class="st2" d="M48,44.1c1,0,1.8,0.8,1.8,1.8c0,1-0.8,1.8-1.8,1.8c-1,0-1.8-0.8-1.8-1.8C46.2,44.9,47,44.1,48,44.1z"/>
	<path class="st2" d="M92,96.2c0.6,0,1.1,0.5,1.1,1.1c0,0.6-0.5,1.1-1.1,1.1c-0.6,0-1.1-0.5-1.1-1.1C90.9,96.7,91.4,96.2,92,96.2z"
		/>
	<path class="st2" d="M98.6,78.4c1.2,0,2.1,1,2.1,2.1c0,1.2-1,2.1-2.1,2.1c-1.2,0-2.1-1-2.1-2.1C96.5,79.3,97.4,78.4,98.6,78.4z"/>
	<path class="st2" d="M93.8,89c1.2,0,2.3,1,2.3,2.3c0,1.2-1,2.3-2.3,2.3c-1.2,0-2.3-1-2.3-2.3C91.6,90,92.6,89,93.8,89z"/>
	<path class="st2" d="M95.5,92.5c1,0,1.8,0.8,1.8,1.8c0,1-0.8,1.8-1.8,1.8c-1,0-1.8-0.8-1.8-1.8C93.6,93.3,94.5,92.5,95.5,92.5z"/>
	<path class="st2" d="M88.1,98.4c1.1,0,2,0.9,2,2c0,1.1-0.9,2-2,2c-1.1,0-2-0.9-2-2C86.1,99.3,87,98.4,88.1,98.4z"/>
	<path class="st2" d="M77.8,39.9c0.9,0,1.7,0.7,1.7,1.7c0,0.9-0.7,1.7-1.7,1.7c-0.9,0-1.7-0.7-1.7-1.7
		C76.1,40.6,76.9,39.9,77.8,39.9z"/>
	<path class="st2" d="M76.5,101c1.2,0,2.2,1,2.2,2.2c0,1.2-1,2.2-2.2,2.2c-1.2,0-2.2-1-2.2-2.2C74.3,101.9,75.3,101,76.5,101z"/>
	<circle class="st2" cx="40.8" cy="92.6" r="2.5"/>
	<path class="st2" d="M97.7,89.7c0.7,0,1.2,0.5,1.2,1.2c0,0.7-0.5,1.2-1.2,1.2c-0.7,0-1.2-0.5-1.2-1.2C96.5,90.3,97,89.7,97.7,89.7z
		"/>
	<path class="st2" d="M73.4,102.6c0.8,0,1.5,0.7,1.5,1.5s-0.7,1.5-1.5,1.5c-0.8,0-1.5-0.7-1.5-1.5S72.6,102.6,73.4,102.6z"/>
	<circle class="st2" cx="82.6" cy="100.4" r="1.3"/>
	<path class="st2" d="M51.1,42.1c0.8,0,1.5,0.7,1.5,1.5c0,0.8-0.7,1.5-1.5,1.5c-0.8,0-1.5-0.7-1.5-1.5
		C49.6,42.8,50.3,42.1,51.1,42.1z"/>
	<path class="st2" d="M53.2,37.3c0.9,0,1.6,0.7,1.6,1.6c0,0.9-0.7,1.6-1.6,1.6c-0.9,0-1.6-0.7-1.6-1.6C51.6,38,52.3,37.3,53.2,37.3z
		"/>
	<path class="st2" d="M58.1,39.6c0.9,0,1.6,0.7,1.6,1.6c0,0.9-0.7,1.6-1.6,1.6c-0.9,0-1.6-0.7-1.6-1.6
		C56.5,40.3,57.2,39.6,58.1,39.6z"/>
	<circle class="st2" cx="96.4" cy="58.8" r="1.6"/>
	<path class="st2" d="M31.7,67.1c0.7,0,1.2,0.5,1.2,1.2c0,0.7-0.5,1.2-1.2,1.2c-0.7,0-1.2-0.5-1.2-1.2
		C30.5,67.6,31.1,67.1,31.7,67.1z"/>
	<circle class="st2" cx="37.8" cy="86.6" r="1.8"/>
	<path class="st2" d="M64.2,38.2c0.9,0,1.6,0.7,1.6,1.6c0,0.9-0.7,1.6-1.6,1.6c-0.9,0-1.6-0.7-1.6-1.6
		C62.6,38.9,63.3,38.2,64.2,38.2z"/>
	<path class="st2" d="M44.8,42.4c0.6,0,1.1,0.5,1.1,1.1c0,0.6-0.5,1.1-1.1,1.1c-0.6,0-1.1-0.5-1.1-1.1
		C43.8,42.9,44.2,42.4,44.8,42.4z"/>
	<path class="st2" d="M61.1,38.3c1.1,0,2,0.9,2,2c0,1.1-0.9,2-2,2c-1.1,0-2-0.9-2-2C59.2,39.1,60.1,38.3,61.1,38.3z"/>
	<path class="st2" d="M95.6,49.3c1,0,1.8,0.8,1.8,1.8c0,1-0.8,1.8-1.8,1.8c-1,0-1.8-0.8-1.8-1.8C93.8,50.1,94.6,49.3,95.6,49.3z"/>
	<path class="st2" d="M46.1,95.3c1,0,1.8,0.8,1.8,1.8s-0.8,1.8-1.8,1.8c-1,0-1.8-0.8-1.8-1.8S45.2,95.3,46.1,95.3z"/>
	<path class="st2" d="M62.3,102.6c0.9,0,1.7,0.7,1.7,1.7c0,0.9-0.7,1.7-1.7,1.7c-0.9,0-1.7-0.7-1.7-1.7
		C60.6,103.3,61.4,102.6,62.3,102.6z"/>
	<path class="st2" d="M53.6,103.8c0.8,0,1.5,0.7,1.5,1.5c0,0.8-0.7,1.5-1.5,1.5c-0.8,0-1.5-0.7-1.5-1.5
		C52.1,104.5,52.8,103.8,53.6,103.8z"/>
	<path class="st2" d="M67.2,38c0.8,0,1.5,0.7,1.5,1.5c0,0.8-0.7,1.5-1.5,1.5c-0.8,0-1.5-0.7-1.5-1.5C65.7,38.7,66.3,38,67.2,38z"/>
	<path class="st2" d="M66,102.7c1,0,1.9,0.8,1.9,1.9c0,1-0.8,1.9-1.9,1.9c-1,0-1.9-0.8-1.9-1.9C64.2,103.6,65,102.7,66,102.7z"/>
	<path class="st2" d="M42.6,44.5c0.9,0,1.6,0.7,1.6,1.6c0,0.9-0.7,1.6-1.6,1.6c-0.9,0-1.6-0.7-1.6-1.6
		C41.1,45.2,41.8,44.5,42.6,44.5z"/>
	<path class="st2" d="M55.3,101.3c0.6,0,1.1,0.5,1.1,1.1c0,0.6-0.5,1.1-1.1,1.1c-0.6,0-1.1-0.5-1.1-1.1
		C54.2,101.8,54.7,101.3,55.3,101.3z"/>
	<path class="st2" d="M57.5,105.4c1.1,0,1.9,0.9,1.9,1.9c0,1.1-0.9,1.9-1.9,1.9c-1.1,0-1.9-0.9-1.9-1.9
		C55.5,106.2,56.4,105.4,57.5,105.4z"/>
	<circle class="st2" cx="39.3" cy="89.7" r="1.3"/>
	<path class="st2" d="M36.6,51.1c0.9,0,1.7,0.7,1.7,1.7c0,0.9-0.7,1.7-1.7,1.7c-0.9,0-1.7-0.7-1.7-1.7C35,51.8,35.7,51.1,36.6,51.1z
		"/>
	<path class="st2" d="M99.3,71.2c1.3,0,2.3,1,2.3,2.3c0,1.3-1,2.3-2.3,2.3c-1.3,0-2.3-1-2.3-2.3C97,72.2,98.1,71.2,99.3,71.2z"/>
	<path class="st2" d="M99.8,86.4c0.8,0,1.5,0.7,1.5,1.5c0,0.8-0.7,1.5-1.5,1.5c-0.8,0-1.5-0.7-1.5-1.5
		C98.3,87.1,98.9,86.4,99.8,86.4z"/>
	<path class="st2" d="M77.3,105.2c0.7,0,1.3,0.6,1.3,1.3c0,0.7-0.6,1.3-1.3,1.3c-0.7,0-1.3-0.6-1.3-1.3
		C76,105.8,76.5,105.2,77.3,105.2z"/>
	<path class="st2" d="M80,37.4c0.9,0,1.7,0.8,1.7,1.7c0,0.9-0.8,1.7-1.7,1.7c-0.9,0-1.7-0.8-1.7-1.7C78.3,38.2,79.1,37.4,80,37.4z"
		/>
	<path class="st2" d="M47.9,39.1c1.1,0,2,0.9,2,2c0,1.1-0.9,2-2,2c-1.1,0-2-0.9-2-2C45.9,40,46.8,39.1,47.9,39.1z"/>
	<path class="st2" d="M70.4,107.2c0.9,0,1.6,0.7,1.6,1.6c0,0.9-0.7,1.6-1.6,1.6c-0.9,0-1.6-0.7-1.6-1.6
		C68.8,107.9,69.5,107.2,70.4,107.2z"/>
	<path class="st2" d="M68.4,35.3c0.9,0,1.6,0.7,1.6,1.6c0,0.9-0.7,1.6-1.6,1.6c-0.9,0-1.6-0.7-1.6-1.6C66.8,36,67.5,35.3,68.4,35.3z
		"/>
	<path class="st2" d="M87.1,45.2c0.8,0,1.4,0.6,1.4,1.4c0,0.8-0.6,1.4-1.4,1.4c-0.8,0-1.4-0.6-1.4-1.4
		C85.7,45.9,86.3,45.2,87.1,45.2z"/>
	<path class="st2" d="M99.2,75.5c0.8,0,1.5,0.7,1.5,1.5c0,0.8-0.7,1.5-1.5,1.5c-0.8,0-1.5-0.7-1.5-1.5
		C97.7,76.2,98.4,75.5,99.2,75.5z"/>
	<path class="st2" d="M49.2,97.7c0.8,0,1.4,0.6,1.4,1.4c0,0.8-0.6,1.4-1.4,1.4c-0.8,0-1.4-0.6-1.4-1.4
		C47.8,98.4,48.4,97.7,49.2,97.7z"/>
	<path class="st2" d="M85.5,97c0.9,0,1.6,0.7,1.6,1.6c0,0.9-0.7,1.6-1.6,1.6c-0.9,0-1.6-0.7-1.6-1.6C83.9,97.8,84.7,97,85.5,97z"/>
	<path class="st2" d="M97.5,82.4c1,0,1.8,0.8,1.8,1.8c0,1-0.8,1.8-1.8,1.8c-1,0-1.8-0.8-1.8-1.8C95.7,83.2,96.5,82.4,97.5,82.4z"/>
	<path class="st2" d="M32.8,58.9c0.8,0,1.4,0.6,1.4,1.4c0,0.8-0.6,1.4-1.4,1.4c-0.8,0-1.4-0.6-1.4-1.4
		C31.5,59.6,32.1,58.9,32.8,58.9z"/>
	<path class="st2" d="M32.6,78.5c0.7,0,1.3,0.6,1.3,1.3c0,0.7-0.6,1.3-1.3,1.3c-0.7,0-1.3-0.6-1.3-1.3
		C31.3,79.1,31.9,78.5,32.6,78.5z"/>
	<path class="st2" d="M31.2,71.3c0.8,0,1.5,0.7,1.5,1.5c0,0.8-0.7,1.5-1.5,1.5c-0.8,0-1.5-0.7-1.5-1.5
		C29.7,71.9,30.4,71.3,31.2,71.3z"/>
	<path class="st2" d="M35,75c0.9,0,1.7,0.7,1.7,1.7c0,0.9-0.7,1.7-1.7,1.7c-0.9,0-1.7-0.7-1.7-1.7C33.3,75.7,34.1,75,35,75z"/>
	<path class="st2" d="M42.8,47.6c1.2,0,2.3,1,2.3,2.3c0,1.2-1,2.3-2.3,2.3c-1.2,0-2.3-1-2.3-2.3C40.5,48.7,41.5,47.6,42.8,47.6z"/>
	<circle class="st2" cx="89.9" cy="49.4" r="1.8"/>
	<path class="st2" d="M74.8,34.6c1,0,1.7,0.8,1.7,1.7c0,1-0.8,1.7-1.7,1.7c-1,0-1.7-0.8-1.7-1.7C73,35.4,73.8,34.6,74.8,34.6z"/>
	<path class="st2" d="M88.5,94.6c1,0,1.8,0.8,1.8,1.8c0,1-0.8,1.8-1.8,1.8c-1,0-1.8-0.8-1.8-1.8C86.8,95.4,87.6,94.6,88.5,94.6z"/>
	<circle class="st2" cx="35.6" cy="80" r="1.5"/>
	<path class="st2" d="M85.1,104.2c0.7,0,1.2,0.5,1.2,1.2c0,0.7-0.5,1.2-1.2,1.2c-0.7,0-1.2-0.5-1.2-1.2
		C83.9,104.7,84.5,104.2,85.1,104.2z"/>
	<path class="st2" d="M36.5,81.3c1.2,0,2.1,1,2.1,2.1c0,1.2-1,2.1-2.1,2.1c-1.2,0-2.1-1-2.1-2.1C34.4,82.2,35.3,81.3,36.5,81.3z"/>
	<path class="st2" d="M81.4,104.2c0.8,0,1.5,0.7,1.5,1.5c0,0.8-0.7,1.5-1.5,1.5c-0.8,0-1.5-0.7-1.5-1.5
		C79.9,104.9,80.6,104.2,81.4,104.2z"/>
	<path class="st2" d="M58.6,101.6c1.3,0,2.3,1,2.3,2.3c0,1.3-1,2.3-2.3,2.3c-1.3,0-2.3-1-2.3-2.3C56.2,102.7,57.3,101.6,58.6,101.6z
		"/>
	<path class="st2" d="M97.7,60.7c1.1,0,2,0.9,2,2c0,1.1-0.9,2-2,2c-1.1,0-2-0.9-2-2C95.7,61.6,96.6,60.7,97.7,60.7z"/>
	<path class="st2" d="M37.1,57.9c0.9,0,1.6,0.7,1.6,1.6c0,0.9-0.7,1.6-1.6,1.6c-0.9,0-1.6-0.7-1.6-1.6
		C35.5,58.6,36.2,57.9,37.1,57.9z"/>
	<path class="st2" d="M101,60.5c1,0,1.9,0.8,1.9,1.9c0,1-0.8,1.9-1.9,1.9c-1,0-1.9-0.8-1.9-1.9C99.1,61.3,100,60.5,101,60.5z"/>
	<path class="st2" d="M54.5,40.2c1,0,1.9,0.8,1.9,1.9c0,1-0.8,1.9-1.9,1.9c-1,0-1.9-0.8-1.9-1.9C52.6,41,53.5,40.2,54.5,40.2z"/>
	<path class="st2" d="M81.3,40.2c1.4,0,2.5,1.1,2.5,2.5c0,1.4-1.1,2.5-2.5,2.5c-1.4,0-2.5-1.1-2.5-2.5C78.9,41.3,80,40.2,81.3,40.2z
		"/>
	<path class="st2" d="M91.4,92.3c0.9,0,1.7,0.8,1.7,1.7c0,0.9-0.8,1.7-1.7,1.7c-0.9,0-1.7-0.8-1.7-1.7
		C89.8,93.1,90.5,92.3,91.4,92.3z"/>
	<path class="st2" d="M96.3,85.6c1.3,0,2.4,1.1,2.4,2.4c0,1.3-1.1,2.4-2.4,2.4c-1.3,0-2.4-1.1-2.4-2.4C93.9,86.7,95,85.6,96.3,85.6z
		"/>
	<path class="st2" d="M98,57.2c0.7,0,1.3,0.6,1.3,1.3c0,0.7-0.6,1.3-1.3,1.3c-0.7,0-1.3-0.6-1.3-1.3C96.7,57.8,97.3,57.2,98,57.2z"
		/>
	<path class="st2" d="M35.8,60.6c1.2,0,2.1,1,2.1,2.1c0,1.2-1,2.1-2.1,2.1c-1.2,0-2.1-1-2.1-2.1C33.6,61.5,34.6,60.6,35.8,60.6z"/>
	<path class="st2" d="M71.1,37.1c1.3,0,2.3,1,2.3,2.3c0,1.3-1,2.3-2.3,2.3c-1.3,0-2.3-1-2.3-2.3C68.8,38.2,69.8,37.1,71.1,37.1z"/>
	<path class="st2" d="M47.2,100.9c0.9,0,1.6,0.7,1.6,1.6c0,0.9-0.7,1.6-1.6,1.6c-0.9,0-1.6-0.7-1.6-1.6
		C45.6,101.7,46.3,100.9,47.2,100.9z"/>
	<path class="st2" d="M43.5,93.7c0.8,0,1.5,0.7,1.5,1.5c0,0.8-0.7,1.5-1.5,1.5c-0.8,0-1.5-0.7-1.5-1.5
		C42.1,94.4,42.7,93.7,43.5,93.7z"/>
	<path class="st2" d="M99.2,68c1,0,1.9,0.8,1.9,1.9c0,1-0.8,1.9-1.9,1.9c-1,0-1.9-0.8-1.9-1.9C97.4,68.8,98.2,68,99.2,68z"/>
	<path class="st2" d="M34.5,67.9c1,0,1.9,0.8,1.9,1.9c0,1-0.8,1.9-1.9,1.9c-1,0-1.9-0.8-1.9-1.9C32.6,68.8,33.4,67.9,34.5,67.9z"/>
	<path class="st2" d="M100.7,82.2c0.7,0,1.3,0.6,1.3,1.3c0,0.7-0.6,1.3-1.3,1.3c-0.7,0-1.3-0.6-1.3-1.3
		C99.4,82.8,99.9,82.2,100.7,82.2z"/>
	<path class="st2" d="M58.9,35.4c1.1,0,2,0.9,2,2c0,1.1-0.9,2-2,2c-1.1,0-2-0.9-2-2C57,36.3,57.9,35.4,58.9,35.4z"/>
	<path class="st2" d="M84.1,43.1c0.8,0,1.5,0.7,1.5,1.5c0,0.8-0.7,1.5-1.5,1.5c-0.8,0-1.5-0.7-1.5-1.5
		C82.7,43.8,83.3,43.1,84.1,43.1z"/>
	<path class="st2" d="M74.4,39.2c0.7,0,1.4,0.6,1.4,1.3c0,0.7-0.6,1.3-1.4,1.3c-0.7,0-1.3-0.6-1.3-1.3
		C73.1,39.8,73.7,39.2,74.4,39.2z"/>
	<path class="st2" d="M51.9,99.1c1.3,0,2.4,1.1,2.4,2.4c0,1.3-1.1,2.4-2.4,2.4c-1.3,0-2.4-1.1-2.4-2.4
		C49.5,100.2,50.6,99.1,51.9,99.1z"/>
	<path class="st2" d="M92.6,50.7c0.9,0,1.6,0.7,1.6,1.6c0,0.9-0.7,1.6-1.6,1.6c-0.9,0-1.6-0.7-1.6-1.6
		C90.9,51.4,91.7,50.7,92.6,50.7z"/>
	<path class="st2" d="M99.1,64.9c0.8,0,1.4,0.6,1.4,1.4c0,0.8-0.6,1.4-1.4,1.4c-0.8,0-1.4-0.6-1.4-1.4
		C97.7,65.5,98.3,64.9,99.1,64.9z"/>
	<path class="st2" d="M40.7,51c1.1,0,2,0.9,2,2c0,1.1-0.9,2-2,2c-1.1,0-2-0.9-2-2C38.7,51.9,39.6,51,40.7,51z"/>
	<path class="st2" d="M64.8,34.1c1,0,1.9,0.8,1.9,1.9c0,1-0.8,1.9-1.9,1.9c-1,0-1.9-0.8-1.9-1.9C63,34.9,63.8,34.1,64.8,34.1z"/>
	<path class="st2" d="M99,53.1c1,0,1.8,0.8,1.8,1.8c0,1-0.8,1.8-1.8,1.8c-1,0-1.8-0.8-1.8-1.8C97.2,53.9,98,53.1,99,53.1z"/>
	<path class="st2" d="M94.9,53.4c1.2,0,2.2,1,2.2,2.2c0,1.2-1,2.2-2.2,2.2c-1.2,0-2.2-1-2.2-2.2C92.7,54.3,93.7,53.4,94.9,53.4z"/>
	<path class="st2" d="M76.7,37.4c0.7,0,1.2,0.5,1.2,1.2c0,0.7-0.5,1.2-1.2,1.2c-0.7,0-1.2-0.5-1.2-1.2C75.5,37.9,76,37.4,76.7,37.4z
		"/>
	<path class="st2" d="M102.7,72.1c0.8,0,1.4,0.6,1.4,1.4c0,0.8-0.6,1.4-1.4,1.4c-0.8,0-1.4-0.6-1.4-1.4
		C101.2,72.7,101.9,72.1,102.7,72.1z"/>
	<path class="st2" d="M102.6,63.8c0.7,0,1.4,0.6,1.4,1.4c0,0.7-0.6,1.4-1.4,1.4c-0.7,0-1.4-0.6-1.4-1.4
		C101.2,64.4,101.8,63.8,102.6,63.8z"/>
	<path class="st2" d="M63.8,106.4c1,0,1.9,0.8,1.9,1.9c0,1-0.8,1.9-1.9,1.9c-1,0-1.9-0.8-1.9-1.9C61.9,107.2,62.7,106.4,63.8,106.4z
		"/>
	<path class="st2" d="M34.5,71.4c1.1,0,2,0.9,2,2c0,1.1-0.9,2-2,2c-1.1,0-2-0.9-2-2C32.5,72.3,33.4,71.4,34.5,71.4z"/>
	<path class="st2" d="M69.8,102.8c1.1,0,1.9,0.9,1.9,1.9c0,1.1-0.9,1.9-1.9,1.9c-1.1,0-1.9-0.9-1.9-1.9
		C67.9,103.6,68.7,102.8,69.8,102.8z"/>
	<path class="st2" d="M73.2,105.9c0.7,0,1.2,0.5,1.2,1.2c0,0.7-0.5,1.2-1.2,1.2c-0.7,0-1.2-0.5-1.2-1.2
		C72,106.5,72.5,105.9,73.2,105.9z"/>
	<path class="st2" d="M39,49.6c0.6,0,1.1,0.5,1.1,1.1c0,0.6-0.5,1.1-1.1,1.1c-0.6,0-1.1-0.5-1.1-1.1C37.9,50.1,38.4,49.6,39,49.6z"
		/>
	<path class="st2" d="M33.5,82.5c0.8,0,1.4,0.6,1.4,1.4c0,0.8-0.6,1.4-1.4,1.4c-0.8,0-1.4-0.6-1.4-1.4
		C32.1,83.2,32.7,82.5,33.5,82.5z"/>
	<circle class="st2" cx="36.6" cy="88.1" r="1.3"/>
	<path class="st2" d="M40.7,94.8c0.8,0,1.5,0.7,1.5,1.5s-0.7,1.5-1.5,1.5c-0.8,0-1.5-0.7-1.5-1.5S39.9,94.8,40.7,94.8z"/>
	<path class="st2" d="M41.5,96.3c0.6,0,1,0.5,1,1s-0.5,1-1,1c-0.6,0-1-0.5-1-1S40.9,96.3,41.5,96.3z"/>
	<path class="st2" d="M90.4,45.6c0.6,0,1.1,0.5,1.1,1.1c0,0.6-0.5,1.1-1.1,1.1c-0.6,0-1.1-0.5-1.1-1.1
		C89.3,46.1,89.8,45.6,90.4,45.6z"/>
	<path class="st2" d="M36.9,89.8c1,0,1.8,0.8,1.8,1.8c0,1-0.8,1.8-1.8,1.8c-1,0-1.8-0.8-1.8-1.8C35.2,90.6,35.9,89.8,36.9,89.8z"/>
	<path class="st2" d="M102.6,67.3c0.8,0,1.5,0.7,1.5,1.5c0,0.8-0.7,1.5-1.5,1.5c-0.8,0-1.5-0.7-1.5-1.5
		C101.1,68,101.8,67.3,102.6,67.3z"/>
	<path class="st2" d="M101.7,78.2c0.8,0,1.4,0.6,1.4,1.4c0,0.8-0.6,1.4-1.4,1.4c-0.8,0-1.4-0.6-1.4-1.4
		C100.2,78.9,100.9,78.2,101.7,78.2z"/>
	<path class="st2" d="M101.3,75.4c0.9,0,1.6,0.7,1.6,1.6c0,0.9-0.7,1.6-1.6,1.6c-0.9,0-1.6-0.7-1.6-1.6
		C99.6,76.1,100.3,75.4,101.3,75.4z"/>
	<path class="st2" d="M61.3,104.6c0.8,0,1.5,0.7,1.5,1.5c0,0.8-0.7,1.5-1.5,1.5c-0.8,0-1.5-0.7-1.5-1.5
		C59.8,105.3,60.4,104.6,61.3,104.6z"/>
	<path class="st2" d="M45.5,97.2c0.8,0,1.4,0.6,1.4,1.4c0,0.8-0.6,1.4-1.4,1.4c-0.8,0-1.4-0.6-1.4-1.4
		C44.1,97.9,44.7,97.2,45.5,97.2z"/>
	<circle class="st2" cx="33.3" cy="66.1" r="1.3"/>
	<path class="st2" d="M83,101.6c0.7,0,1.4,0.6,1.4,1.3c0,0.7-0.6,1.4-1.4,1.4c-0.7,0-1.4-0.6-1.4-1.4
		C81.6,102.2,82.2,101.6,83,101.6z"/>
	<path class="st2" d="M72.4,37.2c0.5,0,0.9,0.4,0.9,0.9c0,0.5-0.4,0.9-0.9,0.9c-0.5,0-0.9-0.4-0.9-0.9
		C71.4,37.6,71.9,37.2,72.4,37.2z"/>
	<path class="st2" d="M101.4,85.5c0.9,0,1.6,0.7,1.6,1.6c0,0.9-0.7,1.6-1.6,1.6c-0.9,0-1.6-0.7-1.6-1.6
		C99.8,86.3,100.5,85.5,101.4,85.5z"/>
	<path class="st2" d="M91.8,47.9c0.6,0,1.1,0.5,1.1,1.1c0,0.6-0.5,1.1-1.1,1.1c-0.6,0-1.1-0.5-1.1-1.1
		C90.6,48.4,91.1,47.9,91.8,47.9z"/>
	<path class="st2" d="M51.2,40.8c0.6,0,1.1,0.5,1.1,1.1c0,0.6-0.5,1.1-1.1,1.1c-0.6,0-1.1-0.5-1.1-1.1
		C50.1,41.3,50.6,40.8,51.2,40.8z"/>
</g>
</svg>
